Kavoon-Regular.ufo
<glyph name="dollar" format="1">
  <advance width="1110"/>
  <unicode hex="0024"/>
  <outline>
    <contour>
      <point x="60" y="173" type="curve"/>
      <point x="148" y="30"/>
      <point x="327" y="-12"/>
      <point x="445" y="-18" type="curve"/>
      <point x="468" y="-267" type="line"/>
      <point x="497" y="-296"/>
      <point x="537" y="-309"/>
      <point x="576" y="-309" type="curve" smooth="yes"/>
      <point x="630" y="-309"/>
      <point x="683" y="-285"/>
      <point x="706" y="-246" type="curve"/>
      <point x="715" y="-162"/>
      <point x="723" y="-76"/>
      <point x="731" y="8" type="curve"/>
      <point x="752" y="14"/>
      <point x="771" y="20"/>
      <point x="790" y="28" type="curve" smooth="yes"/>
      <point x="936" y="85"/>
      <point x="1054" y="220"/>
      <point x="1054" y="417" type="curve" smooth="yes"/>
      <point x="1054" y="676"/>
      <point x="853" y="782"/>
      <point x="636" y="896" type="curve" smooth="yes"/>
      <point x="550" y="941"/>
      <point x="418" y="982"/>
      <point x="418" y="1096" type="curve" smooth="yes"/>
      <point x="418" y="1144"/>
      <point x="429" y="1184"/>
      <point x="482" y="1209" type="curve"/>
      <point x="502" y="1210"/>
      <point x="604" y="1203"/>
      <point x="693" y="1178" type="curve"/>
      <point x="724" y="978" type="line"/>
      <point x="753" y="961"/>
      <point x="784" y="952"/>
      <point x="844" y="952" type="curve" smooth="yes"/>
      <point x="899" y="952"/>
      <point x="934" y="959"/>
      <point x="964" y="974" type="curve"/>
      <point x="1020" y="1037"/>
      <point x="1065" y="1232"/>
      <point x="1065" y="1373" type="curve"/>
      <point x="1012" y="1444"/>
      <point x="956" y="1485"/>
      <point x="893" y="1523" type="curve"/>
      <point x="835" y="1535"/>
      <point x="772" y="1542"/>
      <point x="715" y="1545" type="curve"/>
      <point x="725" y="1668"/>
      <point x="733" y="1776"/>
      <point x="731" y="1856" type="curve"/>
      <point x="704" y="1870"/>
      <point x="670" y="1875"/>
      <point x="632" y="1875" type="curve" smooth="yes"/>
      <point x="533" y="1875"/>
      <point x="412" y="1837"/>
      <point x="358" y="1799" type="curve"/>
      <point x="382" y="1534" type="line"/>
      <point x="133" y="1482"/>
      <point x="40" y="1300"/>
      <point x="40" y="1078" type="curve" smooth="yes"/>
      <point x="40" y="764"/>
      <point x="270" y="646"/>
      <point x="496" y="531" type="curve" smooth="yes"/>
      <point x="566" y="495"/>
      <point x="706" y="446"/>
      <point x="702" y="356" type="curve" smooth="yes"/>
      <point x="701" y="343"/>
      <point x="698" y="318"/>
      <point x="691" y="303" type="curve"/>
      <point x="673" y="294"/>
      <point x="639" y="288"/>
      <point x="612" y="288" type="curve" smooth="yes"/>
      <point x="441" y="288"/>
      <point x="284" y="354"/>
      <point x="134" y="420" type="curve"/>
      <point x="78" y="356"/>
      <point x="56" y="282"/>
      <point x="56" y="219" type="curve" smooth="yes"/>
      <point x="56" y="203"/>
      <point x="57" y="187"/>
    </contour>
  </outline>
</glyph>
<glyph name="percent" format="1">
  <advance width="1910"/>
  <unicode hex="0025"/>
  <outline>
    <contour>
      <point x="315" y="20" type="line"/>
      <point x="334" y="-46"/>
      <point x="450" y="-95"/>
      <point x="528" y="-111" type="curve"/>
      <point x="1501" y="1451" type="line"/>
      <point x="1441" y="1521"/>
      <point x="1271" y="1594"/>
      <point x="1193" y="1592" type="curve"/>
    </contour>
    <contour>
      <point x="351" y="693" type="curve" smooth="yes"/>
      <point x="624" y="693"/>
      <point x="749" y="890"/>
      <point x="749" y="1134" type="curve" smooth="yes"/>
      <point x="749" y="1371"/>
      <point x="652" y="1549"/>
      <point x="366" y="1549" type="curve" smooth="yes"/>
      <point x="92" y="1549"/>
      <point x="-29" y="1363"/>
      <point x="-29" y="1120" type="curve" smooth="yes"/>
      <point x="-29" y="879"/>
      <point x="73" y="693"/>
    </contour>
    <contour>
      <point x="288" y="946" type="curve"/>
      <point x="275" y="1003"/>
      <point x="266" y="1062"/>
      <point x="266" y="1127" type="curve" smooth="yes"/>
      <point x="266" y="1182"/>
      <point x="272" y="1217"/>
      <point x="287" y="1266" type="curve"/>
      <point x="338" y="1268"/>
      <point x="369" y="1262"/>
      <point x="419" y="1250" type="curve"/>
      <point x="433" y="1191"/>
      <point x="441" y="1146"/>
      <point x="441" y="1082" type="curve" smooth="yes"/>
      <point x="441" y="1027"/>
      <point x="435" y="980"/>
      <point x="424" y="929" type="curve"/>
      <point x="409" y="924"/>
      <point x="393" y="922"/>
      <point x="377" y="922" type="curve" smooth="yes"/>
      <point x="342" y="922"/>
      <point x="308" y="932"/>
    </contour>
    <contour>
      <point x="1083" y="406" type="curve" smooth="yes"/>
      <point x="1083" y="165"/>
      <point x="1185" y="-21"/>
      <point x="1463" y="-21" type="curve" smooth="yes"/>
      <point x="1736" y="-21"/>
      <point x="1861" y="176"/>
      <point x="1861" y="420" type="curve" smooth="yes"/>
      <point x="1861" y="657"/>
      <point x="1764" y="835"/>
      <point x="1478" y="835" type="curve" smooth="yes"/>
      <point x="1204" y="835"/>
      <point x="1083" y="649"/>
    </contour>
    <contour>
      <point x="1400" y="232" type="curve"/>
      <point x="1387" y="289"/>
      <point x="1378" y="348"/>
      <point x="1378" y="413" type="curve" smooth="yes"/>
      <point x="1378" y="468"/>
      <point x="1384" y="503"/>
      <point x="1399" y="552" type="curve"/>
      <point x="1450" y="554"/>
      <point x="1481" y="548"/>
      <point x="1531" y="536" type="curve"/>
      <point x="1545" y="477"/>
      <point x="1553" y="432"/>
      <point x="1553" y="368" type="curve" smooth="yes"/>
      <point x="1553" y="313"/>
      <point x="1547" y="266"/>
      <point x="1536" y="215" type="curve"/>
      <point x="1521" y="210"/>
      <point x="1505" y="208"/>
      <point x="1489" y="208" type="curve" smooth="yes"/>
      <point x="1454" y="208"/>
      <point x="1420" y="218"/>
    </contour>
  </outline>
</glyph>
<glyph name="quotesingle" format="1">
  <advance width="499"/>
  <unicode hex="0027"/>
  <outline>
    <contour>
      <point x="164" y="984" type="curve"/>
      <point x="335" y="984" type="line"/>
      <point x="379" y="1122"/>
      <point x="428" y="1374"/>
      <point x="439" y="1533" type="curve"/>
      <point x="395" y="1589"/>
      <point x="332" y="1612"/>
      <point x="268" y="1610" type="curve"/>
      <point x="192" y="1606"/>
      <point x="114" y="1571"/>
      <point x="60" y="1518" type="curve"/>
      <point x="87" y="1330"/>
      <point x="121" y="1153"/>
    </contour>
  </outline>
</glyph>
<glyph name="parenleft" format="1">
  <advance width="847"/>
  <unicode hex="0028"/>
  <outline>
    <contour>
      <point x="617" y="-321" type="curve"/>
      <point x="673" y="-321"/>
      <point x="771" y="-200"/>
      <point x="780" y="-144" type="curve"/>
      <point x="572" y="131"/>
      <point x="479" y="457"/>
      <point x="479" y="786" type="curve" smooth="yes"/>
      <point x="479" y="1133"/>
      <point x="599" y="1454"/>
      <point x="827" y="1700" type="curve"/>
      <point x="806" y="1775"/>
      <point x="642" y="1898"/>
      <point x="582" y="1917" type="curve"/>
      <point x="269" y="1643"/>
      <point x="127" y="1197"/>
      <point x="127" y="820" type="curve" smooth="yes"/>
      <point x="127" y="416"/>
      <point x="303" y="-71"/>
    </contour>
  </outline>
</glyph>
<glyph name="plus" format="1">
  <advance width="1140"/>
  <unicode hex="002B"/>
  <outline>
    <contour>
      <point x="111" y="422" type="curve"/>
      <point x="424" y="422" type="line"/>
      <point x="437" y="50" type="line"/>
      <point x="481" y="33"/>
      <point x="529" y="23"/>
      <point x="565" y="23" type="curve" smooth="yes"/>
      <point x="622" y="23"/>
      <point x="673" y="45"/>
      <point x="718" y="97" type="curve"/>
      <point x="718" y="423" type="line"/>
      <point x="952" y="423" type="line"/>
      <point x="996" y="510"/>
      <point x="1030" y="599"/>
      <point x="1030" y="676" type="curve" smooth="yes"/>
      <point x="1030" y="698"/>
      <point x="1027" y="719"/>
      <point x="1021" y="745" type="curve"/>
      <point x="701" y="720" type="line"/>
      <point x="739" y="1085" type="line"/>
      <point x="709" y="1113"/>
      <point x="661" y="1126"/>
      <point x="606" y="1126" type="curve" smooth="yes"/>
      <point x="509" y="1126"/>
      <point x="419" y="1087"/>
      <point x="372" y="1012" type="curve"/>
      <point x="413" y="698" type="line"/>
      <point x="170" y="680" type="line"/>
      <point x="129" y="613"/>
      <point x="107" y="573"/>
      <point x="107" y="498" type="curve" smooth="yes"/>
      <point x="107" y="482"/>
      <point x="108" y="449"/>
    </contour>
  </outline>
</glyph>
<glyph name="slash" format="1">
  <advance width="795"/>
  <unicode hex="002F"/>
  <outline>
    <contour>
      <point x="100" y="-38" type="line"/>
      <point x="172" y="-88"/>
      <point x="251" y="-111"/>
      <point x="346" y="-111" type="curve" smooth="yes"/>
      <point x="364" y="-111" type="line"/>
      <point x="769" y="1548" type="line"/>
      <point x="710" y="1585"/>
      <point x="581" y="1612"/>
      <point x="490" y="1612" type="curve" smooth="yes"/>
      <point x="460" y="1612"/>
      <point x="434" y="1609"/>
      <point x="416" y="1603" type="curve"/>
    </contour>
  </outline>
</glyph>
<glyph name="zero" format="1">
  <advance width="1266"/>
  <unicode hex="0030"/>
  <outline>
    <contour>
      <point x="84" y="581" type="curve"/>
      <point x="78" y="223"/>
      <point x="243" y="-20"/>
      <point x="621" y="-20" type="curve" smooth="yes"/>
      <point x="992" y="-20"/>
      <point x="1177" y="234"/>
      <point x="1182" y="581" type="curve" smooth="yes"/>
      <point x="1188" y="947"/>
      <point x="1038" y="1185"/>
      <point x="642" y="1185" type="curve" smooth="yes"/>
      <point x="256" y="1185"/>
      <point x="91" y="931"/>
    </contour>
    <contour>
      <point x="515" y="289" type="curve"/>
      <point x="494" y="364"/>
      <point x="476" y="476"/>
      <point x="476" y="584" type="curve" smooth="yes"/>
      <point x="476" y="678"/>
      <point x="489" y="770"/>
      <point x="526" y="831" type="curve"/>
      <point x="539" y="839"/>
      <point x="593" y="843"/>
      <point x="628" y="842" type="curve" smooth="yes"/>
      <point x="672" y="841"/>
      <point x="739" y="833"/>
      <point x="754" y="816" type="curve"/>
      <point x="779" y="763"/>
      <point x="793" y="658"/>
      <point x="793" y="552" type="curve" smooth="yes"/>
      <point x="793" y="439"/>
      <point x="777" y="326"/>
      <point x="745" y="271" type="curve"/>
      <point x="738" y="266"/>
      <point x="707" y="263"/>
      <point x="669" y="263" type="curve" smooth="yes"/>
      <point x="609" y="263"/>
      <point x="532" y="271"/>
    </contour>
  </outline>
</glyph>
<glyph name="one" format="1">
  <advance width="785"/>
  <unicode hex="0031"/>
  <outline>
    <contour>
      <point x="236" y="10" type="curve"/>
      <point x="285" y="-10"/>
      <point x="341" y="-21"/>
      <point x="398" y="-21" type="curve" smooth="yes"/>
      <point x="460" y="-21"/>
      <point x="523" y="-7"/>
      <point x="578" y="23" type="curve"/>
      <point x="596" y="281"/>
      <point x="638" y="618"/>
      <point x="638" y="905" type="curve" smooth="yes"/>
      <point x="638" y="1032"/>
      <point x="628" y="1165"/>
      <point x="458" y="1165" type="curve" smooth="yes"/>
      <point x="81" y="1165" type="line"/>
      <point x="55" y="1099"/>
      <point x="43" y="1027"/>
      <point x="43" y="939" type="curve"/>
      <point x="68" y="907"/>
      <point x="146" y="873"/>
      <point x="236" y="854" type="curve"/>
      <point x="226" y="711"/>
      <point x="224" y="620"/>
      <point x="224" y="530" type="curve" smooth="yes"/>
      <point x="224" y="368"/>
      <point x="225" y="189"/>
    </contour>
  </outline>
</glyph>
<glyph name="three" format="1">
  <advance width="1140"/>
  <unicode hex="0033"/>
  <outline>
    <contour>
      <point x="43" y="-77" type="curve"/>
      <point x="84" y="-280"/>
      <point x="318" y="-315"/>
      <point x="475" y="-315" type="curve" smooth="yes"/>
      <point x="784" y="-315"/>
      <point x="1057" y="-125"/>
      <point x="1066" y="190" type="curve" smooth="yes"/>
      <point x="1071" y="375"/>
      <point x="879" y="503"/>
      <point x="682" y="503" type="curve" smooth="yes"/>
      <point x="673" y="503"/>
      <point x="663" y="503"/>
      <point x="654" y="502" type="curve"/>
      <point x="743" y="606"/>
      <point x="810" y="702"/>
      <point x="844" y="761" type="curve"/>
      <point x="865" y="758"/>
      <point x="899" y="754"/>
      <point x="934" y="754" type="curve" smooth="yes"/>
      <point x="971" y="754"/>
      <point x="1010" y="760"/>
      <point x="1036" y="777" type="curve"/>
      <point x="1048" y="812"/>
      <point x="1055" y="852"/>
      <point x="1056" y="894" type="curve" smooth="yes"/>
      <point x="1060" y="1025"/>
      <point x="1014" y="1148"/>
      <point x="927" y="1185" type="curve"/>
      <point x="826" y="1181"/>
      <point x="679" y="1107"/>
      <point x="630" y="1053" type="curve"/>
      <point x="529" y="1123"/>
      <point x="391" y="1185"/>
      <point x="271" y="1185" type="curve" smooth="yes"/>
      <point x="147" y="1185"/>
      <point x="49" y="1089"/>
      <point x="44" y="935" type="curve" smooth="yes"/>
      <point x="41" y="828"/>
      <point x="87" y="769"/>
      <point x="127" y="724" type="curve"/>
      <point x="509" y="789" type="line"/>
      <point x="471" y="563" type="line"/>
      <point x="423" y="595"/>
      <point x="367" y="609"/>
      <point x="337" y="609" type="curve"/>
      <point x="253" y="562"/>
      <point x="220" y="498"/>
      <point x="218" y="436" type="curve" smooth="yes"/>
      <point x="216" y="345"/>
      <point x="281" y="260"/>
      <point x="348" y="239" type="curve"/>
      <point x="397" y="249"/>
      <point x="452" y="273"/>
      <point x="494" y="308" type="curve"/>
      <point x="594" y="261"/>
      <point x="670" y="210"/>
      <point x="696" y="170" type="curve"/>
      <point x="698" y="156"/>
      <point x="699" y="137"/>
      <point x="699" y="117" type="curve" smooth="yes"/>
      <point x="698" y="78"/>
      <point x="690" y="35"/>
      <point x="672" y="8" type="curve"/>
      <point x="646" y="-8"/>
      <point x="616" y="-12"/>
      <point x="587" y="-12" type="curve" smooth="yes"/>
      <point x="491" y="-12"/>
      <point x="353" y="18"/>
      <point x="175" y="127" type="curve"/>
      <point x="112" y="88"/>
      <point x="67" y="0"/>
    </contour>
  </outline>
</glyph>
<glyph name="equal" format="1">
  <advance width="1042"/>
  <unicode hex="003D"/>
  <outline>
    <contour>
      <point x="111" y="624" type="curve"/>
      <point x="267" y="615"/>
      <point x="423" y="611"/>
      <point x="581" y="611" type="curve" smooth="yes"/>
      <point x="673" y="611"/>
      <point x="765" y="612"/>
      <point x="857" y="615" type="curve"/>
      <point x="900" y="699"/>
      <point x="932" y="780"/>
      <point x="932" y="858" type="curve" smooth="yes"/>
      <point x="932" y="878"/>
      <point x="930" y="898"/>
      <point x="925" y="918" type="curve"/>
      <point x="167" y="873" type="line"/>
      <point x="129" y="809"/>
      <point x="108" y="759"/>
      <point x="108" y="680" type="curve" smooth="yes"/>
      <point x="108" y="663"/>
      <point x="109" y="644"/>
    </contour>
    <contour>
      <point x="111" y="174" type="curve"/>
      <point x="267" y="165"/>
      <point x="423" y="161"/>
      <point x="581" y="161" type="curve" smooth="yes"/>
      <point x="673" y="161"/>
      <point x="765" y="162"/>
      <point x="857" y="165" type="curve"/>
      <point x="900" y="249"/>
      <point x="932" y="330"/>
      <point x="932" y="408" type="curve" smooth="yes"/>
      <point x="932" y="428"/>
      <point x="930" y="448"/>
      <point x="925" y="468" type="curve"/>
      <point x="167" y="423" type="line"/>
      <point x="129" y="359"/>
      <point x="108" y="309"/>
      <point x="108" y="230" type="curve" smooth="yes"/>
      <point x="108" y="213"/>
      <point x="109" y="194"/>
    </contour>
  </outline>
</glyph>
<glyph name="question" format="1">
  <advance width="908"/>
  <unicode hex="003F"/>
  <outline>
    <contour>
      <point x="263" y="561" type="curve"/>
      <point x="301" y="544"/>
      <point x="339" y="536"/>
      <point x="378" y="536" type="curve" smooth="yes"/>
      <point x="408" y="536"/>
      <point x="438" y="541"/>
      <point x="470" y="551" type="curve"/>
      <point x="514" y="699" type="line"/>
      <point x="522" y="699"/>
      <point x="529" y="698"/>
      <point x="536" y="698" type="curve" smooth="yes"/>
      <point x="805" y="698"/>
      <point x="886" y="860"/>
      <point x="886" y="1030" type="curve" smooth="yes"/>
      <point x="886" y="1124"/>
      <point x="861" y="1218"/>
      <point x="830" y="1283" type="curve" smooth="yes"/>
      <point x="729" y="1494"/>
      <point x="428" y="1623"/>
      <point x="330" y="1623" type="curve"/>
      <point x="231" y="1611"/>
      <point x="98" y="1440"/>
      <point x="98" y="1281" type="curve" smooth="yes"/>
      <point x="98" y="1270"/>
      <point x="99" y="1259"/>
      <point x="100" y="1249" type="curve"/>
      <point x="411" y="1150"/>
      <point x="516" y="1097"/>
      <point x="595" y="1034" type="curve"/>
      <point x="601" y="1023"/>
      <point x="602" y="1006"/>
      <point x="593" y="992" type="curve"/>
      <point x="535" y="977"/>
      <point x="448" y="966"/>
      <point x="370" y="941" type="curve" smooth="yes"/>
      <point x="277" y="911"/>
      <point x="197" y="862"/>
      <point x="197" y="768" type="curve" smooth="yes"/>
      <point x="197" y="693"/>
      <point x="240" y="610"/>
    </contour>
    <contour>
      <point x="147" y="199" type="curve" smooth="yes"/>
      <point x="147" y="80"/>
      <point x="273" y="-20"/>
      <point x="400" y="-20" type="curve" smooth="yes"/>
      <point x="527" y="-20"/>
      <point x="653" y="80"/>
      <point x="653" y="199" type="curve" smooth="yes"/>
      <point x="653" y="302"/>
      <point x="589" y="401"/>
      <point x="400" y="401" type="curve" smooth="yes"/>
      <point x="211" y="401"/>
      <point x="147" y="302"/>
    </contour>
  </outline>
</glyph>
<glyph name="D" format="1">
  <advance width="1335"/>
  <unicode hex="0044"/>
  <outline>
    <contour>
      <point x="188" y="-20" type="curve"/>
      <point x="289" y="-16"/>
      <point x="423" y="74"/>
      <point x="461" y="131" type="curve"/>
      <point x="525" y="86"/>
      <point x="599" y="32"/>
      <point x="742" y="3" type="curve" smooth="yes"/>
      <point x="774" y="-3"/>
      <point x="801" y="-7"/>
      <point x="826" y="-7" type="curve" smooth="yes"/>
      <point x="913" y="-7"/>
      <point x="965" y="30"/>
      <point x="1015" y="86" type="curve"/>
      <point x="1087" y="158"/>
      <point x="1124" y="262"/>
      <point x="1150" y="349" type="curve" smooth="yes"/>
      <point x="1242" y="659"/>
      <point x="1300" y="943"/>
      <point x="1300" y="1165" type="curve" smooth="yes"/>
      <point x="1300" y="1525"/>
      <point x="1035" y="1550"/>
      <point x="793" y="1550" type="curve" smooth="yes"/>
      <point x="568" y="1550"/>
      <point x="162" y="1535"/>
      <point x="2" y="1464" type="curve"/>
      <point x="-1" y="1441"/>
      <point x="-3" y="1417"/>
      <point x="-3" y="1394" type="curve" smooth="yes"/>
      <point x="-3" y="1340"/>
      <point x="6" y="1276"/>
      <point x="24" y="1225" type="curve"/>
      <point x="167" y="1204" type="line"/>
      <point x="168" y="1204" type="line"/>
      <point x="174" y="955"/>
      <point x="192" y="620"/>
      <point x="218" y="350" type="curve"/>
      <point x="158" y="351"/>
      <point x="96" y="338"/>
      <point x="57" y="327" type="curve"/>
      <point x="46" y="292"/>
      <point x="40" y="256"/>
      <point x="40" y="222" type="curve" smooth="yes"/>
      <point x="40" y="113"/>
      <point x="95" y="15"/>
    </contour>
    <contour>
      <point x="558" y="339" type="curve"/>
      <point x="560" y="534"/>
      <point x="561" y="680"/>
      <point x="561" y="791" type="curve" smooth="yes"/>
      <point x="561" y="1040"/>
      <point x="557" y="1111"/>
      <point x="557" y="1173" type="curve"/>
      <point x="584" y="1177"/>
      <point x="617" y="1178"/>
      <point x="647" y="1178" type="curve" smooth="yes"/>
      <point x="677" y="1178"/>
      <point x="706" y="1177"/>
      <point x="725" y="1177" type="curve" smooth="yes"/>
      <point x="828" y="1177"/>
      <point x="879" y="1155"/>
      <point x="885" y="1144" type="curve"/>
      <point x="875" y="977"/>
      <point x="859" y="599"/>
      <point x="810" y="358" type="curve"/>
      <point x="727" y="345"/>
      <point x="648" y="339"/>
    </contour>
    <contour>
      <point x="772" y="0" type="move" name="top"/>
    </contour>
  </outline>
</glyph>
<glyph name="F" format="1">
  <advance width="1097"/>
  <unicode hex="0046"/>
  <outline>
    <contour>
      <point x="13" y="116" type="curve"/>
      <point x="73" y="6"/>
      <point x="178" y="-20"/>
      <point x="250" y="-20" type="curve" smooth="yes"/>
      <point x="340" y="-20"/>
      <point x="434" y="10"/>
      <point x="491" y="86" type="curve" smooth="yes"/>
      <point x="537" y="149"/>
      <point x="553" y="234"/>
      <point x="563" y="325" type="curve" smooth="yes"/>
      <point x="569" y="380"/>
      <point x="574" y="437"/>
      <point x="578" y="497" type="curve"/>
      <point x="683" y="462"/>
      <point x="804" y="442"/>
      <point x="905" y="442" type="curve" smooth="yes"/>
      <point x="934" y="442"/>
      <point x="962" y="443"/>
      <point x="987" y="447" type="curve"/>
      <point x="1010" y="472"/>
      <point x="1038" y="554"/>
      <point x="1038" y="641" type="curve" smooth="yes"/>
      <point x="1038" y="694"/>
      <point x="1027" y="750"/>
      <point x="998" y="793" type="curve"/>
      <point x="879" y="769"/>
      <point x="745" y="749"/>
      <point x="591" y="730" type="curve"/>
      <point x="599" y="904" type="line"/>
      <point x="605" y="1008"/>
      <point x="606" y="1121"/>
      <point x="612" y="1212" type="curve"/>
      <point x="640" y="1215"/>
      <point x="673" y="1217"/>
      <point x="701" y="1217" type="curve" smooth="yes"/>
      <point x="741" y="1217"/>
      <point x="762" y="1214"/>
      <point x="781" y="1210" type="curve"/>
      <point x="815" y="959" type="line"/>
      <point x="844" y="942"/>
      <point x="864" y="933"/>
      <point x="925" y="933" type="curve" smooth="yes"/>
      <point x="980" y="933"/>
      <point x="1014" y="940"/>
      <point x="1045" y="955" type="curve"/>
      <point x="1100" y="1018"/>
      <point x="1156" y="1243"/>
      <point x="1156" y="1384" type="curve"/>
      <point x="1103" y="1455"/>
      <point x="1047" y="1496"/>
      <point x="984" y="1534" type="curve"/>
      <point x="983" y="1533" type="line"/>
      <point x="918" y="1548"/>
      <point x="781" y="1550"/>
      <point x="713" y="1550" type="curve" smooth="yes"/>
      <point x="488" y="1550"/>
      <point x="208" y="1530"/>
      <point x="35" y="1464" type="curve"/>
      <point x="32" y="1441"/>
      <point x="30" y="1417"/>
      <point x="30" y="1394" type="curve" smooth="yes"/>
      <point x="30" y="1340"/>
      <point x="39" y="1277"/>
      <point x="57" y="1226" type="curve"/>
      <point x="206" y="1205" type="line"/>
      <point x="203" y="1158" type="line" smooth="yes"/>
      <point x="202" y="1133"/>
      <point x="201" y="1107"/>
      <point x="201" y="1080" type="curve" smooth="yes"/>
      <point x="201" y="858"/>
      <point x="234" y="554"/>
      <point x="241" y="384" type="curve" smooth="yes"/>
      <point x="242" y="369"/>
      <point x="242" y="355"/>
      <point x="242" y="341" type="curve" smooth="yes"/>
      <point x="242" y="318"/>
      <point x="241" y="297"/>
      <point x="235" y="281" type="curve"/>
      <point x="172" y="304"/>
      <point x="139" y="320"/>
      <point x="90" y="343" type="curve"/>
      <point x="24" y="259"/>
      <point x="14" y="190"/>
    </contour>
    <contour>
      <point x="636" y="0" type="move" name="top"/>
    </contour>
  </outline>
</glyph>
<glyph name="G" format="1">
  <advance width="1289"/>
  <unicode hex="0047"/>
  <outline>
    <contour>
      <point x="489" y="-20" type="curve" smooth="yes"/>
      <point x="633" y="-20"/>
      <point x="749" y="101"/>
      <point x="831" y="239" type="curve"/>
      <point x="858" y="231" type="line"/>
      <point x="862" y="139"/>
      <point x="867" y="55"/>
      <point x="867" y="0" type="curve"/>
      <point x="904" y="-14"/>
      <point x="955" y="-20"/>
      <point x="993" y="-20" type="curve" smooth="yes"/>
      <point x="1031" y="-20"/>
      <point x="1072" y="-14"/>
      <point x="1117" y="0" type="curve"/>
      <point x="1146" y="64"/>
      <point x="1217" y="436"/>
      <point x="1241" y="624" type="curve"/>
      <point x="1217" y="686"/>
      <point x="1134" y="693"/>
      <point x="1071" y="693" type="curve" smooth="yes"/>
      <point x="982" y="692"/>
      <point x="893" y="675"/>
      <point x="812" y="648" type="curve"/>
      <point x="839" y="505" type="line"/>
      <point x="788" y="407"/>
      <point x="707" y="313"/>
      <point x="594" y="313" type="curve" smooth="yes"/>
      <point x="548" y="313"/>
      <point x="533" y="380"/>
      <point x="511" y="511" type="curve" smooth="yes"/>
      <point x="498" y="589"/>
      <point x="492" y="681"/>
      <point x="492" y="774" type="curve" smooth="yes"/>
      <point x="492" y="787"/>
      <point x="492" y="800"/>
      <point x="492" y="813" type="curve" smooth="yes"/>
      <point x="495" y="953"/>
      <point x="510" y="1088"/>
      <point x="540" y="1184" type="curve"/>
      <point x="556" y="1185"/>
      <point x="573" y="1185"/>
      <point x="590" y="1185" type="curve" smooth="yes"/>
      <point x="658" y="1185"/>
      <point x="757" y="1182"/>
      <point x="817" y="1165" type="curve"/>
      <point x="852" y="828" type="line"/>
      <point x="881" y="811"/>
      <point x="942" y="802"/>
      <point x="1002" y="802" type="curve" smooth="yes"/>
      <point x="1057" y="802"/>
      <point x="1072" y="809"/>
      <point x="1102" y="824" type="curve"/>
      <point x="1158" y="887"/>
      <point x="1223" y="1220"/>
      <point x="1223" y="1361" type="curve"/>
      <point x="1170" y="1432"/>
      <point x="1114" y="1473"/>
      <point x="1051" y="1511" type="curve"/>
      <point x="927" y="1540"/>
      <point x="798" y="1550"/>
      <point x="704" y="1550" type="curve" smooth="yes"/>
      <point x="247" y="1550"/>
      <point x="67" y="1200"/>
      <point x="67" y="764" type="curve" smooth="yes"/>
      <point x="67" y="287"/>
      <point x="227" y="-20"/>
    </contour>
    <contour>
      <point x="724" y="0" type="move" name="top"/>
    </contour>
  </outline>
</glyph>
<glyph name="H" format="1">
  <advance width="1448"/>
  <unicode hex="0048"/>
  <outline>
    <contour>
      <point x="176" y="1" type="curve"/>
      <point x="219" y="-12"/>
      <point x="257" y="-21"/>
      <point x="310" y="-19" type="curve" smooth="yes"/>
      <point x="385" y="-16"/>
      <point x="521" y="4"/>
      <point x="576" y="38" type="curve"/>
      <point x="561" y="161"/>
      <point x="520" y="372"/>
      <point x="513" y="582" type="curve"/>
      <point x="610" y="575"/>
      <point x="708" y="562"/>
      <point x="807" y="562" type="curve" smooth="yes"/>
      <point x="830" y="562"/>
      <point x="854" y="562"/>
      <point x="877" y="564" type="curve"/>
      <point x="870" y="454"/>
      <point x="870" y="360"/>
      <point x="870" y="288" type="curve" smooth="yes"/>
      <point x="870" y="264"/>
      <point x="870" y="242"/>
      <point x="870" y="223" type="curve" smooth="yes"/>
      <point x="868" y="26"/>
      <point x="987" y="-20"/>
      <point x="1101" y="-20" type="curve" smooth="yes"/>
      <point x="1314" y="-20"/>
      <point x="1438" y="175"/>
      <point x="1438" y="175" type="curve"/>
      <point x="1431" y="246"/>
      <point x="1404" y="307"/>
      <point x="1351" y="353" type="curve"/>
      <point x="1203" y="289" type="line"/>
      <point x="1260" y="620"/>
      <point x="1314" y="997"/>
      <point x="1314" y="1292" type="curve" smooth="yes"/>
      <point x="1314" y="1465"/>
      <point x="1220" y="1551"/>
      <point x="1052" y="1551" type="curve" smooth="yes"/>
      <point x="915" y="1551"/>
      <point x="771" y="1480"/>
      <point x="731" y="1431" type="curve"/>
      <point x="730" y="1417"/>
      <point x="730" y="1404"/>
      <point x="730" y="1391" type="curve" smooth="yes"/>
      <point x="730" y="1340"/>
      <point x="736" y="1299"/>
      <point x="750" y="1236" type="curve"/>
      <point x="893" y="1215" type="line"/>
      <point x="895" y="1215" type="line"/>
      <point x="884" y="1088"/>
      <point x="879" y="964"/>
      <point x="877" y="848" type="curve"/>
      <point x="537" y="848" type="line"/>
      <point x="554" y="1021"/>
      <point x="554" y="1183"/>
      <point x="558" y="1291" type="curve"/>
      <point x="566" y="1464"/>
      <point x="481" y="1550"/>
      <point x="313" y="1550" type="curve" smooth="yes"/>
      <point x="181" y="1550"/>
      <point x="66" y="1479"/>
      <point x="27" y="1430" type="curve"/>
      <point x="26" y="1416"/>
      <point x="26" y="1403"/>
      <point x="26" y="1390" type="curve" smooth="yes"/>
      <point x="26" y="1339"/>
      <point x="32" y="1298"/>
      <point x="46" y="1235" type="curve"/>
      <point x="159" y="1214" type="line"/>
      <point x="161" y="1214" type="line"/>
      <point x="153" y="1123"/>
      <point x="148" y="1024"/>
      <point x="145" y="923" type="curve" smooth="yes"/>
      <point x="141" y="818"/>
      <point x="139" y="717"/>
      <point x="139" y="621" type="curve" smooth="yes"/>
      <point x="139" y="369"/>
      <point x="152" y="151"/>
    </contour>
  </outline>
</glyph>
<glyph name="M" format="1">
  <advance width="1925"/>
  <unicode hex="004D"/>
  <outline>
    <contour>
      <point x="21" y="138" type="curve"/>
      <point x="60" y="62"/>
      <point x="128" y="0"/>
      <point x="252" y="0" type="curve" smooth="yes"/>
      <point x="374" y="0"/>
      <point x="479" y="85"/>
      <point x="495" y="214" type="curve"/>
      <point x="494" y="214" type="line"/>
      <point x="508" y="355"/>
      <point x="522" y="626"/>
      <point x="527" y="864" type="curve"/>
      <point x="478" y="1203" type="line"/>
      <point x="512" y="1208" type="line"/>
      <point x="586" y="905" type="line"/>
      <point x="764" y="262" type="line"/>
      <point x="739" y="210"/>
      <point x="718" y="148"/>
      <point x="714" y="67" type="curve"/>
      <point x="755" y="11"/>
      <point x="855" y="-19"/>
      <point x="960" y="-20" type="curve" smooth="yes"/>
      <point x="1065" y="-21"/>
      <point x="1174" y="8"/>
      <point x="1233" y="64" type="curve"/>
      <point x="1226" y="156"/>
      <point x="1192" y="251"/>
      <point x="1159" y="317" type="curve"/>
      <point x="1219" y="464"/>
      <point x="1286" y="686"/>
      <point x="1338" y="879" type="curve"/>
      <point x="1387" y="1222" type="line"/>
      <point x="1418" y="1222" type="line"/>
      <point x="1413" y="887" type="line"/>
      <point x="1473" y="258" type="line"/>
      <point x="1437" y="29" type="line"/>
      <point x="1464" y="-7"/>
      <point x="1563" y="-21"/>
      <point x="1625" y="-20" type="curve" smooth="yes"/>
      <point x="1701" y="-19"/>
      <point x="1752" y="-6"/>
      <point x="1799" y="13" type="curve"/>
      <point x="1828" y="45"/>
      <point x="1844" y="83"/>
      <point x="1853" y="122" type="curve" smooth="yes"/>
      <point x="1859" y="151"/>
      <point x="1862" y="181"/>
      <point x="1862" y="211" type="curve" smooth="yes"/>
      <point x="1862" y="262"/>
      <point x="1855" y="314"/>
      <point x="1850" y="361" type="curve" smooth="yes"/>
      <point x="1812" y="715"/>
      <point x="1727" y="1210"/>
      <point x="1639" y="1530" type="curve"/>
      <point x="1604" y="1546" type="line"/>
      <point x="1555" y="1548"/>
      <point x="1504" y="1550"/>
      <point x="1453" y="1550" type="curve" smooth="yes"/>
      <point x="1442" y="1550"/>
      <point x="1431" y="1550"/>
      <point x="1420" y="1550" type="curve" smooth="yes"/>
      <point x="1262" y="1550"/>
      <point x="1122" y="1536"/>
      <point x="987" y="1493" type="curve"/>
      <point x="980" y="1462"/>
      <point x="976" y="1432"/>
      <point x="976" y="1402" type="curve" smooth="yes"/>
      <point x="976" y="1362"/>
      <point x="983" y="1322"/>
      <point x="1000" y="1282" type="curve"/>
      <point x="1166" y="1254" type="line"/>
      <point x="1161" y="1254" type="line"/>
      <point x="1139" y="1162"/>
      <point x="1078" y="869"/>
      <point x="1018" y="653" type="curve"/>
      <point x="887" y="1187"/>
      <point x="828" y="1432"/>
      <point x="793" y="1530" type="curve"/>
      <point x="758" y="1546" type="line"/>
      <point x="690" y="1548"/>
      <point x="610" y="1550"/>
      <point x="529" y="1550" type="curve" smooth="yes"/>
      <point x="416" y="1550"/>
      <point x="197" y="1531"/>
      <point x="119" y="1494" type="curve"/>
      <point x="105" y="1457"/>
      <point x="98" y="1422"/>
      <point x="98" y="1386" type="curve" smooth="yes"/>
      <point x="98" y="1352"/>
      <point x="104" y="1318"/>
      <point x="117" y="1284" type="curve"/>
      <point x="271" y="1262" type="line"/>
      <point x="163" y="326" type="line"/>
      <point x="67" y="344" type="line"/>
      <point x="38" y="301"/>
      <point x="19" y="230"/>
      <point x="19" y="169" type="curve" smooth="yes"/>
      <point x="19" y="158"/>
      <point x="20" y="148"/>
    </contour>
    <contour>
      <point x="965" y="0" type="move" name="top"/>
    </contour>
  </outline>
</glyph>
<glyph name="N" format="1">
  <advance width="1430"/>
  <unicode hex="004E"/>
  <outline>
    <contour>
      <point x="-3" y="92" type="curve"/>
      <point x="30" y="41"/>
      <point x="147" y="-20"/>
      <point x="238" y="-20" type="curve" smooth="yes"/>
      <point x="429" y="-20"/>
      <point x="512" y="59"/>
      <point x="512" y="206" type="curve" smooth="yes"/>
      <point x="512" y="405"/>
      <point x="468" y="920"/>
      <point x="443" y="1109" type="curve"/>
      <point x="449" y="1110" type="line"/>
      <point x="572" y="768"/>
      <point x="687" y="433"/>
      <point x="814" y="178" type="curve"/>
      <point x="807" y="141"/>
      <point x="802" y="97"/>
      <point x="801" y="41" type="curve"/>
      <point x="847" y="-2"/>
      <point x="934" y="-20"/>
      <point x="1026" y="-20" type="curve" smooth="yes"/>
      <point x="1144" y="-20"/>
      <point x="1271" y="11"/>
      <point x="1328" y="74" type="curve"/>
      <point x="1318" y="151"/>
      <point x="1292" y="208"/>
      <point x="1263" y="250" type="curve"/>
      <point x="1360" y="1514" type="line"/>
      <point x="1304" y="1539"/>
      <point x="1248" y="1550"/>
      <point x="1191" y="1550" type="curve" smooth="yes"/>
      <point x="1120" y="1550"/>
      <point x="1028" y="1531"/>
      <point x="957" y="1499" type="curve"/>
      <point x="957" y="1323"/>
      <point x="1009" y="757"/>
      <point x="1043" y="464" type="curve"/>
      <point x="1026" y="462" type="line"/>
      <point x="825" y="1091"/>
      <point x="698" y="1417"/>
      <point x="640" y="1530" type="curve"/>
      <point x="563" y="1545"/>
      <point x="473" y="1551"/>
      <point x="391" y="1551" type="curve" smooth="yes"/>
      <point x="272" y="1551"/>
      <point x="122" y="1538"/>
      <point x="21" y="1511" type="curve"/>
      <point x="9" y="1481"/>
      <point x="3" y="1445"/>
      <point x="3" y="1409" type="curve" smooth="yes"/>
      <point x="3" y="1365"/>
      <point x="11" y="1320"/>
      <point x="26" y="1285" type="curve"/>
      <point x="183" y="1232" type="line"/>
      <point x="183" y="290" type="line"/>
      <point x="140" y="298"/>
      <point x="116" y="308"/>
      <point x="79" y="321" type="curve"/>
      <point x="26" y="283"/>
      <point x="-3" y="183"/>
    </contour>
    <contour>
      <point x="727" y="0" type="move" name="top"/>
    </contour>
  </outline>
</glyph>
<glyph name="Q" format="1">
  <advance width="1387"/>
  <unicode hex="0051"/>
  <outline>
    <contour>
      <point x="753" y="81" type="line"/>
      <point x="762" y="15"/>
      <point x="781" y="-369"/>
      <point x="965" y="-426" type="curve"/>
      <point x="977" y="-429"/>
      <point x="989" y="-433"/>
      <point x="1001" y="-435" type="curve"/>
      <point x="1027" y="-442"/>
      <point x="1054" y="-445"/>
      <point x="1081" y="-445" type="curve" smooth="yes"/>
      <point x="1294" y="-445"/>
      <point x="1423" y="-250"/>
      <point x="1423" y="-250" type="curve"/>
      <point x="1415" y="-179"/>
      <point x="1386" y="-118"/>
      <point x="1332" y="-72" type="curve"/>
      <point x="1184" y="-134" type="line"/>
      <point x="1182" y="-132" type="line"/>
      <point x="1170" y="-134" type="line"/>
      <point x="1031" y="61"/>
      <point x="1027" y="159"/>
      <point x="983" y="228" type="curve"/>
    </contour>
    <component base="O"/>
  </outline>
</glyph>
<glyph name="T" format="1">
  <advance width="1127"/>
  <unicode hex="0054"/>
  <outline>
    <contour>
      <point x="224" y="116" type="curve"/>
      <point x="284" y="-1"/>
      <point x="425" y="-20"/>
      <point x="505" y="-20" type="curve" smooth="yes"/>
      <point x="614" y="-20"/>
      <point x="720" y="10"/>
      <point x="777" y="86" type="curve" smooth="yes"/>
      <point x="824" y="149"/>
      <point x="841" y="234"/>
      <point x="849" y="325" type="curve" smooth="yes"/>
      <point x="873" y="605"/>
      <point x="890" y="904"/>
      <point x="901" y="1193" type="curve"/>
      <point x="956" y="1179"/>
      <point x="1000" y="1173"/>
      <point x="1036" y="1173" type="curve" smooth="yes"/>
      <point x="1158" y="1173"/>
      <point x="1210" y="1270"/>
      <point x="1210" y="1375" type="curve" smooth="yes"/>
      <point x="1210" y="1432"/>
      <point x="1193" y="1498"/>
      <point x="1152" y="1550" type="curve"/>
      <point x="880" y="1550"/>
      <point x="534" y="1543"/>
      <point x="292" y="1529" type="curve"/>
      <point x="94" y="1516"/>
      <point x="-28" y="1480"/>
      <point x="-28" y="1247" type="curve" smooth="yes"/>
      <point x="-28" y="1110"/>
      <point x="57" y="954"/>
      <point x="122" y="904" type="curve"/>
      <point x="134" y="903"/>
      <point x="146" y="903"/>
      <point x="158" y="903" type="curve" smooth="yes"/>
      <point x="216" y="903"/>
      <point x="276" y="911"/>
      <point x="327" y="928" type="curve"/>
      <point x="330" y="1243" type="line"/>
      <point x="495" y="1233" type="line"/>
      <point x="491" y="1184"/>
      <point x="489" y="1125"/>
      <point x="489" y="1059" type="curve" smooth="yes"/>
      <point x="489" y="824"/>
      <point x="516" y="512"/>
      <point x="516" y="357" type="curve" smooth="yes"/>
      <point x="516" y="324"/>
      <point x="512" y="290"/>
      <point x="503" y="267" type="curve"/>
      <point x="433" y="286"/>
      <point x="365" y="314"/>
      <point x="300" y="340" type="curve"/>
      <point x="234" y="256"/>
      <point x="225" y="190"/>
    </contour>
    <contour>
      <point x="705" y="0" type="move" name="top"/>
    </contour>
  </outline>
</glyph>
<glyph name="W" format="1">
  <advance width="1968"/>
  <unicode hex="0057"/>
  <outline>
    <contour>
      <point x="311" y="55" type="line"/>
      <point x="376" y="-3"/>
      <point x="490" y="-20"/>
      <point x="600" y="-20" type="curve" smooth="yes"/>
      <point x="657" y="-20"/>
      <point x="741" y="-8"/>
      <point x="784" y="40" type="curve"/>
      <point x="869" y="198"/>
      <point x="932" y="437"/>
      <point x="973" y="684" type="curve"/>
      <point x="976" y="811" type="line"/>
      <point x="989" y="810" type="line"/>
      <point x="995" y="743"/>
      <point x="1014" y="627"/>
      <point x="1019" y="598" type="curve" smooth="yes"/>
      <point x="1084" y="261" type="line"/>
      <point x="1057" y="56" type="line"/>
      <point x="1129" y="-2"/>
      <point x="1238" y="-20"/>
      <point x="1348" y="-20" type="curve" smooth="yes"/>
      <point x="1406" y="-20"/>
      <point x="1496" y="-11"/>
      <point x="1545" y="40" type="curve"/>
      <point x="1663" y="203"/>
      <point x="1728" y="364"/>
      <point x="1793" y="545" type="curve" smooth="yes"/>
      <point x="1881" y="788"/>
      <point x="1947" y="1100"/>
      <point x="1947" y="1276" type="curve" smooth="yes"/>
      <point x="1947" y="1463"/>
      <point x="1859" y="1551"/>
      <point x="1686" y="1551" type="curve" smooth="yes"/>
      <point x="1549" y="1551"/>
      <point x="1410" y="1480"/>
      <point x="1371" y="1431" type="curve"/>
      <point x="1371" y="1361"/>
      <point x="1373" y="1311"/>
      <point x="1393" y="1234" type="curve"/>
      <point x="1511" y="1215" type="line"/>
      <point x="1508" y="1018"/>
      <point x="1430" y="410"/>
      <point x="1379" y="291" type="curve"/>
      <point x="1368" y="291" type="line"/>
      <point x="1349" y="544"/>
      <point x="1304" y="897"/>
      <point x="1240" y="1147" type="curve"/>
      <point x="1240" y="1301" type="line"/>
      <point x="1237" y="1468"/>
      <point x="1099" y="1551"/>
      <point x="931" y="1551" type="curve" smooth="yes"/>
      <point x="794" y="1551"/>
      <point x="657" y="1480"/>
      <point x="618" y="1431" type="curve"/>
      <point x="618" y="1361"/>
      <point x="620" y="1311"/>
      <point x="640" y="1234" type="curve"/>
      <point x="766" y="1215" type="line"/>
      <point x="763" y="1018"/>
      <point x="688" y="407"/>
      <point x="635" y="290" type="curve"/>
      <point x="620" y="290" type="line"/>
      <point x="611" y="458"/>
      <point x="609" y="708"/>
      <point x="549" y="1066" type="curve"/>
      <point x="525" y="1204"/>
      <point x="497" y="1327"/>
      <point x="450" y="1415" type="curve" smooth="yes"/>
      <point x="396" y="1515"/>
      <point x="315" y="1549"/>
      <point x="232" y="1549" type="curve" smooth="yes"/>
      <point x="107" y="1549"/>
      <point x="-33" y="1486"/>
      <point x="-69" y="1371" type="curve"/>
      <point x="-62" y="1304"/>
      <point x="-50" y="1241"/>
      <point x="-28" y="1184" type="curve"/>
      <point x="72" y="1177" type="line"/>
      <point x="136" y="1083"/>
      <point x="276" y="464"/>
      <point x="333" y="243" type="curve"/>
    </contour>
    <contour>
      <point x="962" y="3" type="move" name="top"/>
    </contour>
  </outline>
</glyph>
<glyph name="X" format="1">
  <advance width="1371"/>
  <unicode hex="0058"/>
  <outline>
    <contour>
      <point x="266" y="-19" type="curve" smooth="yes"/>
      <point x="334" y="-20"/>
      <point x="400" y="-8"/>
      <point x="443" y="34" type="curve" smooth="yes"/>
      <point x="575" y="164"/>
      <point x="598" y="462"/>
      <point x="625" y="619" type="curve"/>
      <point x="625" y="606"/>
      <point x="626" y="595"/>
      <point x="627" y="585" type="curve" smooth="yes"/>
      <point x="636" y="458"/>
      <point x="665" y="263"/>
      <point x="748" y="129" type="curve" smooth="yes"/>
      <point x="810" y="30"/>
      <point x="901" y="-25"/>
      <point x="1003" y="-19" type="curve" smooth="yes"/>
      <point x="1226" y="-7"/>
      <point x="1335" y="228"/>
      <point x="1352" y="404" type="curve"/>
      <point x="1230" y="527" type="line"/>
      <point x="1056" y="404" type="line"/>
      <point x="823" y="791" type="line"/>
      <point x="978" y="1095" type="line"/>
      <point x="1083" y="930" type="line"/>
      <point x="1195" y="947"/>
      <point x="1254" y="973"/>
      <point x="1333" y="1062" type="curve"/>
      <point x="1315" y="1257"/>
      <point x="1237" y="1549"/>
      <point x="1047" y="1549" type="curve" smooth="yes"/>
      <point x="983" y="1549"/>
      <point x="923" y="1535"/>
      <point x="883" y="1496" type="curve" smooth="yes"/>
      <point x="764" y="1379"/>
      <point x="734" y="1125"/>
      <point x="709" y="962" type="curve"/>
      <point x="706" y="1069"/>
      <point x="690" y="1215"/>
      <point x="625" y="1374" type="curve" smooth="yes"/>
      <point x="579" y="1486"/>
      <point x="500" y="1547"/>
      <point x="396" y="1549" type="curve" smooth="yes"/>
      <point x="177" y="1554"/>
      <point x="19" y="1364"/>
      <point x="-8" y="1169" type="curve"/>
      <point x="135" y="1035" type="line"/>
      <point x="292" y="1129" type="line"/>
      <point x="498" y="741" type="line"/>
      <point x="339" y="448" type="line"/>
      <point x="256" y="575" type="line"/>
      <point x="143" y="558"/>
      <point x="69" y="503"/>
      <point x="9" y="425" type="curve"/>
      <point x="26" y="241"/>
      <point x="106" y="-16"/>
    </contour>
  </outline>
</glyph>
<glyph name="Z" format="1">
  <advance width="1283"/>
  <unicode hex="005A"/>
  <outline>
    <contour>
      <point x="231" y="-20" type="curve"/>
      <point x="364" y="-11"/>
      <point x="427" y="52"/>
      <point x="487" y="155" type="curve"/>
      <point x="583" y="99"/>
      <point x="820" y="-20"/>
      <point x="966" y="-20" type="curve" smooth="yes"/>
      <point x="1044" y="-20"/>
      <point x="1117" y="14"/>
      <point x="1173" y="90" type="curve" smooth="yes"/>
      <point x="1224" y="159"/>
      <point x="1243" y="270"/>
      <point x="1243" y="375" type="curve" smooth="yes"/>
      <point x="1243" y="472"/>
      <point x="1227" y="565"/>
      <point x="1208" y="615" type="curve"/>
      <point x="1044" y="646" type="line"/>
      <point x="932" y="366" type="line"/>
      <point x="656" y="385" type="line"/>
      <point x="652" y="386" type="line"/>
      <point x="757" y="576"/>
      <point x="1031" y="951"/>
      <point x="1104" y="1098" type="curve"/>
      <point x="1135" y="1098"/>
      <point x="1172" y="1103"/>
      <point x="1214" y="1115" type="curve"/>
      <point x="1231" y="1164"/>
      <point x="1239" y="1215"/>
      <point x="1239" y="1264" type="curve" smooth="yes"/>
      <point x="1239" y="1387"/>
      <point x="1187" y="1499"/>
      <point x="1093" y="1550" type="curve"/>
      <point x="956" y="1550"/>
      <point x="857" y="1470"/>
      <point x="815" y="1407" type="curve"/>
      <point x="662" y="1496"/>
      <point x="453" y="1550"/>
      <point x="290" y="1550" type="curve"/>
      <point x="175" y="1548"/>
      <point x="93" y="1480"/>
      <point x="62" y="1353" type="curve" smooth="yes"/>
      <point x="56" y="1330"/>
      <point x="54" y="1303"/>
      <point x="54" y="1274" type="curve" smooth="yes"/>
      <point x="54" y="1103"/>
      <point x="143" y="859"/>
      <point x="209" y="790" type="curve"/>
      <point x="394" y="830" type="line"/>
      <point x="400" y="1169" type="line"/>
      <point x="675" y="1156" type="line"/>
      <point x="391" y="482" type="line"/>
      <point x="334" y="521"/>
      <point x="281" y="535"/>
      <point x="242" y="547" type="curve"/>
      <point x="185" y="522"/>
      <point x="96" y="523"/>
      <point x="38" y="408" type="curve"/>
      <point x="31" y="257"/>
      <point x="132" y="40"/>
    </contour>
    <contour>
      <point x="669" y="0" type="move" name="top"/>
    </contour>
  </outline>
</glyph>
<glyph name="underscore" format="1">
  <advance width="1698"/>
  <unicode hex="005F"/>
  <outline>
    <contour>
      <point x="10" y="-56" type="line"/>
      <point x="-17" y="-112"/>
      <point x="-38" y="-191"/>
      <point x="-38" y="-261" type="curve" smooth="yes"/>
      <point x="-38" y="-289"/>
      <point x="-35" y="-315"/>
      <point x="-27" y="-338" type="curve"/>
      <point x="1681" y="-336" type="line"/>
      <point x="1711" y="-290"/>
      <point x="1732" y="-215"/>
      <point x="1732" y="-145" type="curve" smooth="yes"/>
      <point x="1732" y="-114"/>
      <point x="1728" y="-83"/>
      <point x="1718" y="-57" type="curve"/>
    </contour>
  </outline>
</glyph>
<glyph name="c" format="1">
  <advance width="1084"/>
  <unicode hex="0063"/>
  <outline>
    <contour>
      <point x="577" y="-20" type="curve" smooth="yes"/>
      <point x="817" y="-20"/>
      <point x="983" y="153"/>
      <point x="1026" y="203" type="curve"/>
      <point x="1016" y="303"/>
      <point x="980" y="353"/>
      <point x="933" y="400" type="curve"/>
      <point x="832" y="356"/>
      <point x="738" y="304"/>
      <point x="638" y="304" type="curve" smooth="yes"/>
      <point x="470" y="304"/>
      <point x="455" y="463"/>
      <point x="455" y="567" type="curve" smooth="yes"/>
      <point x="455" y="664"/>
      <point x="471" y="771"/>
      <point x="502" y="836" type="curve"/>
      <point x="508" y="837"/>
      <point x="517" y="838"/>
      <point x="528" y="838" type="curve" smooth="yes"/>
      <point x="579" y="838"/>
      <point x="673" y="825"/>
      <point x="695" y="800" type="curve"/>
      <point x="716" y="615" type="line"/>
      <point x="738" y="602"/>
      <point x="785" y="595"/>
      <point x="831" y="595" type="curve" smooth="yes"/>
      <point x="873" y="595"/>
      <point x="915" y="600"/>
      <point x="938" y="612" type="curve"/>
      <point x="981" y="660"/>
      <point x="1031" y="932"/>
      <point x="1031" y="1040" type="curve"/>
      <point x="990" y="1095"/>
      <point x="962" y="1111"/>
      <point x="899" y="1155" type="curve"/>
      <point x="792" y="1177"/>
      <point x="674" y="1185"/>
      <point x="602" y="1185" type="curve" smooth="yes"/>
      <point x="224" y="1185"/>
      <point x="61" y="915"/>
      <point x="61" y="581" type="curve" smooth="yes"/>
      <point x="61" y="249"/>
      <point x="238" y="-20"/>
    </contour>
    <contour>
      <point x="577" y="0" type="move" name="btm"/>
    </contour>
    <contour>
      <point x="603" y="0" type="move" name="top"/>
    </contour>
  </outline>
</glyph>
<glyph name="f" format="1">
  <advance width="888"/>
  <unicode hex="0066"/>
  <outline>
    <contour>
      <point x="53" y="-92" type="line"/>
      <point x="0" y="-151"/>
      <point x="-26" y="-239"/>
      <point x="-23" y="-316" type="curve"/>
      <point x="34" y="-406"/>
      <point x="151" y="-432"/>
      <point x="231" y="-432" type="curve" smooth="yes"/>
      <point x="340" y="-432"/>
      <point x="434" y="-402"/>
      <point x="491" y="-326" type="curve" smooth="yes"/>
      <point x="538" y="-263"/>
      <point x="553" y="-178"/>
      <point x="563" y="-87" type="curve" smooth="yes"/>
      <point x="583" y="88"/>
      <point x="585" y="293"/>
      <point x="594" y="492" type="curve" smooth="yes"/>
      <point x="598" y="596"/>
      <point x="603" y="697"/>
      <point x="606" y="788" type="curve"/>
      <point x="663" y="771"/>
      <point x="722" y="764"/>
      <point x="783" y="764" type="curve" smooth="yes"/>
      <point x="796" y="764"/>
      <point x="808" y="764"/>
      <point x="821" y="765" type="curve"/>
      <point x="844" y="791"/>
      <point x="864" y="872"/>
      <point x="864" y="952" type="curve" smooth="yes"/>
      <point x="864" y="1008"/>
      <point x="854" y="1064"/>
      <point x="829" y="1101" type="curve"/>
      <point x="551" y="1050" type="line"/>
      <point x="501" y="1117"/>
      <point x="458" y="1207"/>
      <point x="446" y="1268" type="curve"/>
      <point x="448" y="1282"/>
      <point x="467" y="1303"/>
      <point x="488" y="1307" type="curve"/>
      <point x="589" y="1292"/>
      <point x="658" y="1271"/>
      <point x="772" y="1234" type="curve"/>
      <point x="808" y="1300"/>
      <point x="830" y="1398"/>
      <point x="830" y="1481" type="curve" smooth="yes"/>
      <point x="830" y="1518"/>
      <point x="825" y="1552"/>
      <point x="816" y="1579" type="curve"/>
      <point x="658" y="1623"/>
      <point x="558" y="1623"/>
      <point x="496" y="1623" type="curve" smooth="yes"/>
      <point x="259" y="1623"/>
      <point x="101" y="1530"/>
      <point x="93" y="1354" type="curve" smooth="yes"/>
      <point x="88" y="1240"/>
      <point x="152" y="1140"/>
      <point x="238" y="1062" type="curve"/>
      <point x="234" y="1046" type="line"/>
      <point x="172" y="1031"/>
      <point x="107" y="1011"/>
      <point x="58" y="985" type="curve"/>
      <point x="57" y="909"/>
      <point x="60" y="853"/>
      <point x="80" y="788" type="curve"/>
      <point x="213" y="770" type="line"/>
      <point x="212" y="746" type="line" smooth="yes"/>
      <point x="211" y="717"/>
      <point x="210" y="686"/>
      <point x="210" y="654" type="curve" smooth="yes"/>
      <point x="210" y="433"/>
      <point x="234" y="139"/>
      <point x="241" y="-28" type="curve" smooth="yes"/>
      <point x="243" y="-68"/>
      <point x="239" y="-116"/>
      <point x="229" y="-145" type="curve"/>
    </contour>
  </outline>
</glyph>
<glyph name="h" format="1">
  <advance width="1299"/>
  <unicode hex="0068"/>
  <outline>
    <contour>
      <point x="146" y="34" type="curve"/>
      <point x="146" y="34"/>
      <point x="178" y="-20"/>
      <point x="345" y="-20" type="curve" smooth="yes"/>
      <point x="459" y="-20"/>
      <point x="534" y="17"/>
      <point x="557" y="60" type="curve"/>
      <point x="528" y="157"/>
      <point x="505" y="285"/>
      <point x="505" y="352" type="curve" smooth="yes"/>
      <point x="505" y="362"/>
      <point x="506" y="372"/>
      <point x="507" y="379" type="curve"/>
      <point x="536" y="450"/>
      <point x="654" y="694"/>
      <point x="706" y="761" type="curve"/>
      <point x="727" y="760"/>
      <point x="749" y="754"/>
      <point x="770" y="731" type="curve"/>
      <point x="760" y="610"/>
      <point x="746" y="344"/>
      <point x="746" y="205" type="curve" smooth="yes"/>
      <point x="746" y="27"/>
      <point x="850" y="-20"/>
      <point x="961" y="-20" type="curve" smooth="yes"/>
      <point x="1174" y="-20"/>
      <point x="1293" y="175"/>
      <point x="1293" y="175" type="curve"/>
      <point x="1285" y="246"/>
      <point x="1256" y="307"/>
      <point x="1202" y="353" type="curve"/>
      <point x="1054" y="291" type="line"/>
      <point x="1052" y="293" type="line"/>
      <point x="1084" y="388"/>
      <point x="1174" y="613"/>
      <point x="1174" y="842" type="curve" smooth="yes"/>
      <point x="1174" y="1015"/>
      <point x="1105" y="1185"/>
      <point x="874" y="1185" type="curve" smooth="yes"/>
      <point x="594" y="1185"/>
      <point x="517" y="861"/>
      <point x="463" y="646" type="curve"/>
      <point x="461" y="641"/>
      <point x="456" y="639"/>
      <point x="451" y="639" type="curve" smooth="yes"/>
      <point x="441" y="639"/>
      <point x="429" y="646"/>
      <point x="429" y="655" type="curve"/>
      <point x="484" y="900"/>
      <point x="512" y="1266"/>
      <point x="512" y="1367" type="curve" smooth="yes"/>
      <point x="512" y="1540"/>
      <point x="433" y="1623"/>
      <point x="269" y="1623" type="curve" smooth="yes"/>
      <point x="152" y="1623"/>
      <point x="34" y="1539"/>
      <point x="9" y="1506" type="curve"/>
      <point x="9" y="1438"/>
      <point x="16" y="1373"/>
      <point x="33" y="1308" type="curve"/>
      <point x="146" y="1288" type="line"/>
      <point x="131" y="1143"/>
      <point x="128" y="872"/>
      <point x="128" y="650" type="curve" smooth="yes"/>
      <point x="128" y="521"/>
      <point x="129" y="408"/>
      <point x="129" y="348" type="curve" smooth="yes"/>
      <point x="129" y="148"/>
      <point x="146" y="34"/>
    </contour>
  </outline>
</glyph>
<glyph name="n" format="1">
  <advance width="1333"/>
  <unicode hex="006E"/>
  <outline>
    <contour>
      <point x="180" y="34" type="curve"/>
      <point x="180" y="34"/>
      <point x="212" y="-20"/>
      <point x="379" y="-20" type="curve" smooth="yes"/>
      <point x="493" y="-20"/>
      <point x="568" y="17"/>
      <point x="591" y="60" type="curve"/>
      <point x="562" y="157"/>
      <point x="539" y="285"/>
      <point x="539" y="352" type="curve" smooth="yes"/>
      <point x="539" y="362"/>
      <point x="540" y="372"/>
      <point x="541" y="379" type="curve"/>
      <point x="570" y="450"/>
      <point x="688" y="694"/>
      <point x="740" y="761" type="curve"/>
      <point x="761" y="760"/>
      <point x="783" y="754"/>
      <point x="804" y="731" type="curve"/>
      <point x="794" y="610"/>
      <point x="780" y="344"/>
      <point x="780" y="205" type="curve" smooth="yes"/>
      <point x="780" y="27"/>
      <point x="884" y="-20"/>
      <point x="995" y="-20" type="curve" smooth="yes"/>
      <point x="1208" y="-20"/>
      <point x="1325" y="173"/>
      <point x="1325" y="173" type="curve"/>
      <point x="1317" y="244"/>
      <point x="1288" y="305"/>
      <point x="1234" y="351" type="curve"/>
      <point x="1088" y="291" type="line"/>
      <point x="1086" y="293" type="line"/>
      <point x="1118" y="388"/>
      <point x="1208" y="613"/>
      <point x="1208" y="842" type="curve" smooth="yes"/>
      <point x="1208" y="1015"/>
      <point x="1139" y="1185"/>
      <point x="908" y="1185" type="curve" smooth="yes"/>
      <point x="628" y="1185"/>
      <point x="551" y="861"/>
      <point x="497" y="646" type="curve"/>
      <point x="495" y="641"/>
      <point x="490" y="639"/>
      <point x="485" y="639" type="curve" smooth="yes"/>
      <point x="475" y="639"/>
      <point x="463" y="646"/>
      <point x="463" y="653" type="curve" smooth="yes"/>
      <point x="463" y="654"/>
      <point x="465" y="672"/>
      <point x="491" y="820" type="curve" smooth="yes"/>
      <point x="501" y="878"/>
      <point x="508" y="931"/>
      <point x="508" y="977" type="curve" smooth="yes"/>
      <point x="508" y="1108"/>
      <point x="454" y="1185"/>
      <point x="286" y="1185" type="curve" smooth="yes"/>
      <point x="169" y="1185"/>
      <point x="63" y="1125"/>
      <point x="38" y="1103" type="curve"/>
      <point x="38" y="1003"/>
      <point x="42" y="947"/>
      <point x="72" y="855" type="curve"/>
      <point x="188" y="840" type="line"/>
      <point x="164" y="613"/>
      <point x="163" y="552"/>
      <point x="163" y="348" type="curve" smooth="yes"/>
      <point x="163" y="148"/>
      <point x="180" y="34"/>
    </contour>
    <contour>
      <point x="663" y="0" type="move" name="top"/>
    </contour>
  </outline>
</glyph>
<glyph name="p" format="1">
  <advance width="1249"/>
  <unicode hex="0070"/>
  <outline>
    <contour>
      <point x="134" y="-134" type="curve" smooth="yes"/>
      <point x="134" y="-158"/>
      <point x="134" y="-181"/>
      <point x="134" y="-203" type="curve" smooth="yes"/>
      <point x="134" y="-385"/>
      <point x="237" y="-432"/>
      <point x="349" y="-432" type="curve" smooth="yes"/>
      <point x="562" y="-432"/>
      <point x="678" y="-304"/>
      <point x="678" y="-304" type="curve"/>
      <point x="672" y="-269"/>
      <point x="664" y="-179"/>
      <point x="630" y="-130" type="curve"/>
      <point x="439" y="-143" type="line"/>
      <point x="437" y="-141" type="line"/>
      <point x="477" y="48" type="line"/>
      <point x="618" y="-6"/>
      <point x="697" y="-21"/>
      <point x="757" y="-21" type="curve" smooth="yes"/>
      <point x="943" y="-21"/>
      <point x="1062" y="97"/>
      <point x="1112" y="267" type="curve" smooth="yes"/>
      <point x="1165" y="448"/>
      <point x="1200" y="673"/>
      <point x="1200" y="842" type="curve" smooth="yes"/>
      <point x="1200" y="1015"/>
      <point x="1120" y="1185"/>
      <point x="889" y="1185" type="curve" smooth="yes"/>
      <point x="680" y="1185"/>
      <point x="558" y="996"/>
      <point x="499" y="771" type="curve" smooth="yes"/>
      <point x="487" y="727"/>
      <point x="477" y="685"/>
      <point x="467" y="646" type="curve"/>
      <point x="465" y="641"/>
      <point x="460" y="639"/>
      <point x="455" y="639" type="curve" smooth="yes"/>
      <point x="445" y="639"/>
      <point x="433" y="646"/>
      <point x="433" y="653" type="curve" smooth="yes"/>
      <point x="433" y="654"/>
      <point x="435" y="672"/>
      <point x="461" y="820" type="curve" smooth="yes"/>
      <point x="471" y="878"/>
      <point x="478" y="931"/>
      <point x="478" y="977" type="curve" smooth="yes"/>
      <point x="478" y="1108"/>
      <point x="424" y="1185"/>
      <point x="256" y="1185" type="curve" smooth="yes"/>
      <point x="139" y="1185"/>
      <point x="40" y="1128"/>
      <point x="15" y="1106" type="curve"/>
      <point x="15" y="1006"/>
      <point x="19" y="950"/>
      <point x="49" y="858" type="curve"/>
      <point x="158" y="840" type="line"/>
      <point x="135" y="550"/>
      <point x="134" y="162"/>
    </contour>
    <contour>
      <point x="501" y="331" type="curve"/>
      <point x="501" y="379" type="line"/>
      <point x="548" y="474"/>
      <point x="698" y="743"/>
      <point x="718" y="760" type="curve"/>
      <point x="747" y="760"/>
      <point x="770" y="749"/>
      <point x="784" y="731" type="curve"/>
      <point x="788" y="708"/>
      <point x="789" y="682"/>
      <point x="789" y="655" type="curve" smooth="yes"/>
      <point x="789" y="537"/>
      <point x="784" y="362"/>
      <point x="753" y="246" type="curve"/>
      <point x="728" y="235"/>
      <point x="593" y="268"/>
    </contour>
  </outline>
</glyph>
<glyph name="s" format="1">
  <advance width="967"/>
  <unicode hex="0073"/>
  <outline>
    <contour>
      <point x="85" y="142" type="curve"/>
      <point x="165" y="10"/>
      <point x="342" y="-21"/>
      <point x="441" y="-21" type="curve" smooth="yes"/>
      <point x="548" y="-21"/>
      <point x="627" y="-11"/>
      <point x="698" y="15" type="curve" smooth="yes"/>
      <point x="822" y="61"/>
      <point x="924" y="170"/>
      <point x="924" y="327" type="curve" smooth="yes"/>
      <point x="924" y="441"/>
      <point x="855" y="531"/>
      <point x="759" y="597" type="curve" smooth="yes"/>
      <point x="677" y="653"/>
      <point x="574" y="689"/>
      <point x="493" y="724" type="curve" smooth="yes"/>
      <point x="454" y="741"/>
      <point x="403" y="760"/>
      <point x="403" y="807" type="curve" smooth="yes"/>
      <point x="403" y="840"/>
      <point x="420" y="867"/>
      <point x="447" y="874" type="curve"/>
      <point x="542" y="855"/>
      <point x="686" y="783"/>
      <point x="810" y="743" type="curve"/>
      <point x="869" y="801"/>
      <point x="904" y="938"/>
      <point x="904" y="1044" type="curve" smooth="yes"/>
      <point x="904" y="1071"/>
      <point x="902" y="1096"/>
      <point x="897" y="1117" type="curve"/>
      <point x="752" y="1185"/>
      <point x="553" y="1185"/>
      <point x="491" y="1185" type="curve" smooth="yes"/>
      <point x="182" y="1185"/>
      <point x="70" y="1019"/>
      <point x="70" y="811" type="curve" smooth="yes"/>
      <point x="70" y="501"/>
      <point x="352" y="440"/>
      <point x="572" y="320" type="curve" smooth="yes"/>
      <point x="590" y="310"/>
      <point x="595" y="298"/>
      <point x="595" y="287" type="curve" smooth="yes"/>
      <point x="595" y="275"/>
      <point x="591" y="262"/>
      <point x="587" y="257" type="curve"/>
      <point x="580" y="254"/>
      <point x="564" y="252"/>
      <point x="547" y="252" type="curve" smooth="yes"/>
      <point x="412" y="252"/>
      <point x="284" y="305"/>
      <point x="163" y="353" type="curve"/>
      <point x="97" y="269"/>
      <point x="86" y="216"/>
    </contour>
    <contour>
      <point x="501" y="0" type="move" name="top"/>
    </contour>
  </outline>
</glyph>
<glyph name="u" format="1">
  <advance width="1280"/>
  <unicode hex="0075"/>
  <outline>
    <contour>
      <point x="144" y="351" type="curve" smooth="yes"/>
      <point x="144" y="173"/>
      <point x="202" y="-20"/>
      <point x="437" y="-20" type="curve" smooth="yes"/>
      <point x="583" y="-20"/>
      <point x="706" y="94"/>
      <point x="774" y="333" type="curve"/>
      <point x="802" y="324" type="line"/>
      <point x="793" y="293"/>
      <point x="774" y="184"/>
      <point x="774" y="156" type="curve" smooth="yes"/>
      <point x="774" y="58"/>
      <point x="831" y="-20"/>
      <point x="946" y="-20" type="curve" smooth="yes"/>
      <point x="1109" y="-20"/>
      <point x="1241" y="127"/>
      <point x="1264" y="175" type="curve"/>
      <point x="1255" y="260"/>
      <point x="1216" y="319"/>
      <point x="1184" y="353" type="curve"/>
      <point x="1069" y="303" type="line"/>
      <point x="1115" y="476"/>
      <point x="1186" y="768"/>
      <point x="1186" y="926" type="curve" smooth="yes"/>
      <point x="1186" y="1099"/>
      <point x="1099" y="1185"/>
      <point x="928" y="1185" type="curve" smooth="yes"/>
      <point x="791" y="1185"/>
      <point x="694" y="1114"/>
      <point x="655" y="1065" type="curve"/>
      <point x="655" y="1055"/>
      <point x="654" y="1046"/>
      <point x="654" y="1037" type="curve" smooth="yes"/>
      <point x="654" y="979"/>
      <point x="660" y="935"/>
      <point x="677" y="868" type="curve"/>
      <point x="782" y="847" type="line"/>
      <point x="772" y="760"/>
      <point x="765" y="671"/>
      <point x="760" y="584" type="curve"/>
      <point x="692" y="457"/>
      <point x="553" y="284"/>
      <point x="529" y="283" type="curve"/>
      <point x="514" y="287"/>
      <point x="499" y="295"/>
      <point x="487" y="308" type="curve"/>
      <point x="503" y="470"/>
      <point x="569" y="756"/>
      <point x="569" y="926" type="curve" smooth="yes"/>
      <point x="569" y="1099"/>
      <point x="482" y="1185"/>
      <point x="311" y="1185" type="curve" smooth="yes"/>
      <point x="194" y="1185"/>
      <point x="107" y="1144"/>
      <point x="31" y="1072" type="curve"/>
      <point x="31" y="972"/>
      <point x="38" y="947"/>
      <point x="58" y="862" type="curve"/>
      <point x="164" y="847" type="line"/>
      <point x="148" y="688"/>
      <point x="144" y="520"/>
    </contour>
    <contour>
      <point x="627" y="0" type="move" name="top"/>
    </contour>
  </outline>
</glyph>
<glyph name="v" format="1">
  <advance width="1180"/>
  <unicode hex="0076"/>
  <outline>
    <contour>
      <point x="371" y="40" type="curve"/>
      <point x="404" y="14"/>
      <point x="492" y="-20"/>
      <point x="555" y="-20" type="curve" smooth="yes"/>
      <point x="613" y="-20"/>
      <point x="654" y="-14"/>
      <point x="688" y="0" type="curve"/>
      <point x="978" y="215"/>
      <point x="1145" y="623"/>
      <point x="1145" y="926" type="curve" smooth="yes"/>
      <point x="1145" y="1099"/>
      <point x="1058" y="1185"/>
      <point x="887" y="1185" type="curve" smooth="yes"/>
      <point x="750" y="1185"/>
      <point x="638" y="1114"/>
      <point x="604" y="1065" type="curve"/>
      <point x="604" y="1055"/>
      <point x="603" y="1046"/>
      <point x="603" y="1037" type="curve" smooth="yes"/>
      <point x="603" y="979"/>
      <point x="608" y="935"/>
      <point x="626" y="868" type="curve"/>
      <point x="751" y="846" type="line"/>
      <point x="749" y="649"/>
      <point x="700" y="401"/>
      <point x="642" y="284" type="curve"/>
      <point x="613" y="285" type="line"/>
      <point x="599" y="540"/>
      <point x="563" y="781"/>
      <point x="501" y="954" type="curve" smooth="yes"/>
      <point x="446" y="1107"/>
      <point x="381" y="1187"/>
      <point x="257" y="1187" type="curve" smooth="yes"/>
      <point x="123" y="1187"/>
      <point x="40" y="1105"/>
      <point x="8" y="1015" type="curve"/>
      <point x="8" y="943"/>
      <point x="21" y="864"/>
      <point x="41" y="807" type="curve"/>
      <point x="114" y="793" type="line"/>
      <point x="197" y="645"/>
      <point x="315" y="228"/>
    </contour>
  </outline>
</glyph>
<glyph name="w" format="1">
  <advance width="1716"/>
  <unicode hex="0077"/>
  <outline>
    <contour>
      <point x="327" y="41" type="curve"/>
      <point x="374" y="-1"/>
      <point x="475" y="-20"/>
      <point x="565" y="-20" type="curve" smooth="yes"/>
      <point x="620" y="-20"/>
      <point x="672" y="-12"/>
      <point x="706" y="1" type="curve"/>
      <point x="791" y="129"/>
      <point x="838" y="271"/>
      <point x="868" y="403" type="curve"/>
      <point x="888" y="403" type="line"/>
      <point x="919" y="258"/>
      <point x="939" y="101"/>
      <point x="953" y="52" type="curve"/>
      <point x="1008" y="4"/>
      <point x="1103" y="-20"/>
      <point x="1191" y="-20" type="curve" smooth="yes"/>
      <point x="1229" y="-20"/>
      <point x="1267" y="-15"/>
      <point x="1299" y="-6" type="curve"/>
      <point x="1443" y="143"/>
      <point x="1685" y="547"/>
      <point x="1685" y="910" type="curve" smooth="yes"/>
      <point x="1685" y="1093"/>
      <point x="1599" y="1185"/>
      <point x="1422" y="1185" type="curve" smooth="yes"/>
      <point x="1281" y="1185"/>
      <point x="1167" y="1096"/>
      <point x="1167" y="1045" type="curve" smooth="yes"/>
      <point x="1167" y="983"/>
      <point x="1175" y="937"/>
      <point x="1194" y="867" type="curve"/>
      <point x="1292" y="848" type="line"/>
      <point x="1292" y="650"/>
      <point x="1235" y="401"/>
      <point x="1184" y="283" type="curve"/>
      <point x="1166" y="284" type="line"/>
      <point x="1146" y="467"/>
      <point x="1116" y="619"/>
      <point x="1080" y="744" type="curve"/>
      <point x="1101" y="802"/>
      <point x="1116" y="866"/>
      <point x="1116" y="926" type="curve" smooth="yes"/>
      <point x="1116" y="1099"/>
      <point x="1030" y="1185"/>
      <point x="859" y="1185" type="curve" smooth="yes"/>
      <point x="715" y="1185"/>
      <point x="584" y="1098"/>
      <point x="584" y="1046" type="curve" smooth="yes"/>
      <point x="584" y="984"/>
      <point x="592" y="938"/>
      <point x="611" y="868" type="curve"/>
      <point x="729" y="845" type="line"/>
      <point x="711" y="592"/>
      <point x="672" y="439"/>
      <point x="626" y="284" type="curve"/>
      <point x="587" y="285" type="line"/>
      <point x="587" y="483"/>
      <point x="559" y="719"/>
      <point x="526" y="872" type="curve" smooth="yes"/>
      <point x="509" y="951"/>
      <point x="482" y="1030"/>
      <point x="441" y="1088" type="curve" smooth="yes"/>
      <point x="394" y="1154"/>
      <point x="338" y="1187"/>
      <point x="257" y="1187" type="curve" smooth="yes"/>
      <point x="123" y="1187"/>
      <point x="44" y="1100"/>
      <point x="12" y="1010" type="curve"/>
      <point x="12" y="935"/>
      <point x="22" y="864"/>
      <point x="42" y="807" type="curve"/>
      <point x="108" y="794" type="line"/>
      <point x="183" y="669"/>
      <point x="301" y="221"/>
    </contour>
  </outline>
</glyph>
<glyph name="x" format="1">
  <advance width="1151"/>
  <unicode hex="0078"/>
  <outline>
    <contour>
      <point x="261" y="-20" type="curve" smooth="yes"/>
      <point x="443" y="-20"/>
      <point x="487" y="250"/>
      <point x="509" y="377" type="curve"/>
      <point x="531" y="377" type="line"/>
      <point x="568" y="218"/>
      <point x="621" y="-20"/>
      <point x="818" y="-20" type="curve" smooth="yes"/>
      <point x="1013" y="-20"/>
      <point x="1118" y="192"/>
      <point x="1133" y="358" type="curve"/>
      <point x="998" y="466" type="line"/>
      <point x="871" y="371" type="line"/>
      <point x="714" y="577" type="line"/>
      <point x="830" y="801" type="line"/>
      <point x="849" y="763"/>
      <point x="903" y="693"/>
      <point x="922" y="676" type="curve"/>
      <point x="1005" y="686"/>
      <point x="1081" y="726"/>
      <point x="1139" y="797" type="curve"/>
      <point x="1137" y="891"/>
      <point x="1103" y="973"/>
      <point x="1063" y="1047" type="curve" smooth="yes"/>
      <point x="1013" y="1138"/>
      <point x="937" y="1184"/>
      <point x="863" y="1184" type="curve" smooth="yes"/>
      <point x="819" y="1184"/>
      <point x="770" y="1171"/>
      <point x="726" y="1118" type="curve" smooth="yes"/>
      <point x="679" y="1062"/>
      <point x="657" y="942"/>
      <point x="628" y="767" type="curve"/>
      <point x="612" y="767" type="line"/>
      <point x="600" y="924"/>
      <point x="560" y="1183"/>
      <point x="370" y="1183" type="curve" smooth="yes"/>
      <point x="168" y="1183"/>
      <point x="61" y="969"/>
      <point x="32" y="846" type="curve"/>
      <point x="157" y="710" type="line"/>
      <point x="277" y="775" type="line"/>
      <point x="411" y="573" type="line"/>
      <point x="327" y="365" type="line"/>
      <point x="306" y="394"/>
      <point x="259" y="467"/>
      <point x="239" y="484" type="curve"/>
      <point x="142" y="474"/>
      <point x="88" y="444"/>
      <point x="24" y="366" type="curve"/>
      <point x="26" y="235"/>
      <point x="113" y="-20"/>
    </contour>
  </outline>
</glyph>
<glyph name="z" format="1">
  <advance width="1134"/>
  <unicode hex="007A"/>
  <outline>
    <contour>
      <point x="225" y="-20" type="curve"/>
      <point x="348" y="-11"/>
      <point x="400" y="53"/>
      <point x="456" y="150" type="curve"/>
      <point x="552" y="72"/>
      <point x="702" y="-20"/>
      <point x="825" y="-20" type="curve" smooth="yes"/>
      <point x="895" y="-20"/>
      <point x="960" y="2"/>
      <point x="1011" y="70" type="curve" smooth="yes"/>
      <point x="1057" y="133"/>
      <point x="1073" y="230"/>
      <point x="1073" y="323" type="curve" smooth="yes"/>
      <point x="1073" y="408"/>
      <point x="1060" y="488"/>
      <point x="1043" y="533" type="curve"/>
      <point x="895" y="561" type="line"/>
      <point x="795" y="327" type="line"/>
      <point x="573" y="352" type="line"/>
      <point x="659" y="439"/>
      <point x="854" y="657"/>
      <point x="917" y="754" type="curve"/>
      <point x="929" y="752"/>
      <point x="942" y="751"/>
      <point x="955" y="751" type="curve" smooth="yes"/>
      <point x="990" y="751"/>
      <point x="1026" y="759"/>
      <point x="1048" y="777" type="curve"/>
      <point x="1059" y="812"/>
      <point x="1065" y="853"/>
      <point x="1065" y="894" type="curve" smooth="yes"/>
      <point x="1065" y="1025"/>
      <point x="1010" y="1169"/>
      <point x="917" y="1204" type="curve"/>
      <point x="816" y="1200"/>
      <point x="712" y="1110"/>
      <point x="674" y="1053" type="curve"/>
      <point x="610" y="1098"/>
      <point x="481" y="1146"/>
      <point x="338" y="1175" type="curve" smooth="yes"/>
      <point x="315" y="1180"/>
      <point x="293" y="1182"/>
      <point x="272" y="1182" type="curve" smooth="yes"/>
      <point x="166" y="1182"/>
      <point x="91" y="1121"/>
      <point x="63" y="1005" type="curve" smooth="yes"/>
      <point x="56" y="975"/>
      <point x="53" y="948"/>
      <point x="53" y="923" type="curve" smooth="yes"/>
      <point x="53" y="828"/>
      <point x="99" y="769"/>
      <point x="140" y="724" type="curve"/>
      <point x="541" y="789" type="line"/>
      <point x="356" y="439" type="line"/>
      <point x="291" y="482"/>
      <point x="238" y="510"/>
      <point x="198" y="510" type="curve"/>
      <point x="89" y="448"/>
      <point x="48" y="355"/>
      <point x="48" y="265" type="curve" smooth="yes"/>
      <point x="48" y="134"/>
      <point x="134" y="7"/>
    </contour>
    <contour>
      <point x="561" y="0" type="move" name="top"/>
    </contour>
  </outline>
</glyph>
<glyph name="braceleft" format="1">
  <advance width="962"/>
  <unicode hex="007B"/>
  <outline>
    <contour>
      <point x="395" y="-32" type="line" smooth="yes"/>
      <point x="394" y="-48"/>
      <point x="393" y="-64"/>
      <point x="393" y="-80" type="curve" smooth="yes"/>
      <point x="393" y="-190"/>
      <point x="426" y="-292"/>
      <point x="575" y="-292" type="curve" smooth="yes"/>
      <point x="844" y="-292" type="line"/>
      <point x="870" y="-226"/>
      <point x="882" y="-172"/>
      <point x="882" y="-84" type="curve"/>
      <point x="857" y="-52"/>
      <point x="797" y="-21"/>
      <point x="715" y="-16" type="curve"/>
      <point x="744" y="465" type="line" smooth="yes"/>
      <point x="754" y="623"/>
      <point x="646" y="700"/>
      <point x="536" y="754" type="curve"/>
      <point x="536" y="769" type="line"/>
      <point x="654" y="836"/>
      <point x="757" y="924"/>
      <point x="751" y="1045" type="curve" smooth="yes"/>
      <point x="725" y="1556" type="line"/>
      <point x="829" y="1584"/>
      <point x="888" y="1612"/>
      <point x="941" y="1657" type="curve"/>
      <point x="942" y="1720"/>
      <point x="925" y="1782"/>
      <point x="912" y="1845" type="curve"/>
      <point x="634" y="1837" type="line" smooth="yes"/>
      <point x="438" y="1831"/>
      <point x="363" y="1783"/>
      <point x="363" y="1607" type="curve" smooth="yes"/>
      <point x="363" y="1576"/>
      <point x="366" y="1542"/>
      <point x="370" y="1503" type="curve" smooth="yes"/>
      <point x="434" y="932" type="line"/>
      <point x="402" y="898" type="line"/>
      <point x="331" y="920"/>
      <point x="212" y="959"/>
      <point x="192" y="959" type="curve"/>
      <point x="153" y="932"/>
      <point x="127" y="849"/>
      <point x="127" y="771" type="curve" smooth="yes"/>
      <point x="127" y="671"/>
      <point x="190" y="547"/>
      <point x="268" y="526" type="curve"/>
      <point x="328" y="530"/>
      <point x="377" y="551"/>
      <point x="417" y="583" type="curve"/>
      <point x="437" y="566" type="line"/>
    </contour>
  </outline>
</glyph>
<glyph name="cent" format="1">
  <advance width="1088"/>
  <unicode hex="00A2"/>
  <outline>
    <contour>
      <point x="440" y="-1" type="curve"/>
      <point x="465" y="-267" type="line"/>
      <point x="494" y="-296"/>
      <point x="534" y="-309"/>
      <point x="573" y="-309" type="curve" smooth="yes"/>
      <point x="627" y="-309"/>
      <point x="680" y="-285"/>
      <point x="703" y="-246" type="curve"/>
      <point x="728" y="1" type="line"/>
      <point x="890" y="48"/>
      <point x="1000" y="163"/>
      <point x="1034" y="203" type="curve"/>
      <point x="1024" y="303"/>
      <point x="988" y="353"/>
      <point x="941" y="400" type="curve"/>
      <point x="850" y="361"/>
      <point x="765" y="315"/>
      <point x="676" y="306" type="curve" smooth="yes"/>
      <point x="665" y="305"/>
      <point x="656" y="304"/>
      <point x="646" y="304" type="curve" smooth="yes"/>
      <point x="478" y="304"/>
      <point x="466" y="465"/>
      <point x="466" y="556" type="curve" smooth="yes"/>
      <point x="466" y="570"/>
      <point x="466" y="583"/>
      <point x="466" y="593" type="curve" smooth="yes"/>
      <point x="466" y="683"/>
      <point x="475" y="768"/>
      <point x="510" y="836" type="curve"/>
      <point x="543" y="843"/>
      <point x="676" y="830"/>
      <point x="703" y="800" type="curve"/>
      <point x="724" y="615" type="line"/>
      <point x="747" y="602"/>
      <point x="793" y="595"/>
      <point x="839" y="595" type="curve" smooth="yes"/>
      <point x="881" y="595"/>
      <point x="923" y="601"/>
      <point x="946" y="612" type="curve"/>
      <point x="989" y="660"/>
      <point x="1039" y="932"/>
      <point x="1039" y="1040" type="curve"/>
      <point x="998" y="1095"/>
      <point x="970" y="1111"/>
      <point x="907" y="1155" type="curve"/>
      <point x="851" y="1166"/>
      <point x="792" y="1174"/>
      <point x="739" y="1179" type="curve"/>
      <point x="753" y="1343"/>
      <point x="766" y="1490"/>
      <point x="764" y="1592" type="curve"/>
      <point x="737" y="1606"/>
      <point x="703" y="1611"/>
      <point x="665" y="1611" type="curve" smooth="yes"/>
      <point x="566" y="1611"/>
      <point x="445" y="1573"/>
      <point x="391" y="1535" type="curve"/>
      <point x="425" y="1159" type="line"/>
      <point x="178" y="1085"/>
      <point x="69" y="854"/>
      <point x="69" y="581" type="curve" smooth="yes"/>
      <point x="69" y="300"/>
      <point x="196" y="64"/>
    </contour>
  </outline>
</glyph>
<glyph name="sterling" format="1">
  <advance width="1182"/>
  <unicode hex="00A3"/>
  <outline>
    <contour>
      <point x="212" y="-20" type="curve"/>
      <point x="335" y="-11"/>
      <point x="407" y="53"/>
      <point x="463" y="150" type="curve"/>
      <point x="559" y="72"/>
      <point x="778" y="-20"/>
      <point x="901" y="-20" type="curve" smooth="yes"/>
      <point x="1063" y="-20"/>
      <point x="1156" y="109"/>
      <point x="1156" y="250" type="curve" smooth="yes"/>
      <point x="1156" y="338"/>
      <point x="1129" y="426"/>
      <point x="1108" y="482" type="curve"/>
      <point x="1052" y="502"/>
      <point x="978" y="514"/>
      <point x="919" y="514" type="curve" smooth="yes"/>
      <point x="906" y="514" type="line"/>
      <point x="833" y="330" type="line"/>
      <point x="552" y="330" type="line"/>
      <point x="581" y="397"/>
      <point x="588" y="513"/>
      <point x="589" y="638" type="curve"/>
      <point x="779" y="639" type="line"/>
      <point x="801" y="656"/>
      <point x="829" y="760"/>
      <point x="829" y="834" type="curve" smooth="yes"/>
      <point x="829" y="862"/>
      <point x="825" y="885"/>
      <point x="816" y="899" type="curve"/>
      <point x="586" y="881" type="line"/>
      <point x="586" y="941" type="line" smooth="yes"/>
      <point x="586" y="1074"/>
      <point x="594" y="1177"/>
      <point x="631" y="1191" type="curve"/>
      <point x="714" y="1191"/>
      <point x="856" y="1171"/>
      <point x="1029" y="1088" type="curve"/>
      <point x="1091" y="1127"/>
      <point x="1166" y="1316"/>
      <point x="1169" y="1406" type="curve"/>
      <point x="1106" y="1493"/>
      <point x="908" y="1550"/>
      <point x="741" y="1550" type="curve" smooth="yes"/>
      <point x="350" y="1550"/>
      <point x="201" y="1364"/>
      <point x="201" y="1023" type="curve" smooth="yes"/>
      <point x="201" y="967"/>
      <point x="208" y="910"/>
      <point x="219" y="853" type="curve"/>
      <point x="98" y="844" type="line"/>
      <point x="82" y="821"/>
      <point x="75" y="777"/>
      <point x="75" y="734" type="curve" smooth="yes"/>
      <point x="75" y="696"/>
      <point x="80" y="658"/>
      <point x="89" y="637" type="curve"/>
      <point x="267" y="637" type="line"/>
      <point x="287" y="552"/>
      <point x="304" y="468"/>
      <point x="304" y="389" type="curve" smooth="yes"/>
      <point x="304" y="378"/>
      <point x="303" y="367"/>
      <point x="303" y="357" type="curve"/>
      <point x="232" y="384"/>
      <point x="139" y="401"/>
      <point x="108" y="401" type="curve"/>
      <point x="80" y="337"/>
      <point x="68" y="274"/>
      <point x="68" y="217" type="curve" smooth="yes"/>
      <point x="68" y="90"/>
      <point x="129" y="-6"/>
    </contour>
  </outline>
</glyph>
<glyph name="currency" format="1">
  <advance width="1206"/>
  <unicode hex="00A4"/>
  <outline>
    <contour>
      <point x="257" y="68" type="curve"/>
      <point x="298" y="88"/>
      <point x="348" y="143"/>
      <point x="410" y="238" type="curve"/>
      <point x="464" y="210"/>
      <point x="555" y="190"/>
      <point x="611" y="190" type="curve" smooth="yes"/>
      <point x="675" y="190"/>
      <point x="737" y="206"/>
      <point x="792" y="234" type="curve"/>
      <point x="921" y="61" type="line"/>
      <point x="1002" y="61"/>
      <point x="1160" y="193"/>
      <point x="1164" y="277" type="curve"/>
      <point x="1144" y="317"/>
      <point x="1082" y="376"/>
      <point x="987" y="433" type="curve"/>
      <point x="1015" y="488"/>
      <point x="1031" y="549"/>
      <point x="1031" y="612" type="curve" smooth="yes"/>
      <point x="1031" y="666"/>
      <point x="1016" y="745"/>
      <point x="991" y="809" type="curve"/>
      <point x="1170" y="942" type="line"/>
      <point x="1170" y="1023"/>
      <point x="1038" y="1181"/>
      <point x="954" y="1185" type="curve"/>
      <point x="912" y="1164"/>
      <point x="849" y="1097"/>
      <point x="789" y="993" type="curve"/>
      <point x="789" y="994" type="line"/>
      <point x="730" y="1028"/>
      <point x="665" y="1032"/>
      <point x="611" y="1032" type="curve" smooth="yes"/>
      <point x="547" y="1032"/>
      <point x="488" y="1018"/>
      <point x="434" y="993" type="curve"/>
      <point x="290" y="1190" type="line"/>
      <point x="209" y="1190"/>
      <point x="51" y="1058"/>
      <point x="47" y="974" type="curve"/>
      <point x="68" y="930"/>
      <point x="129" y="875"/>
      <point x="237" y="808" type="curve"/>
      <point x="206" y="749"/>
      <point x="189" y="683"/>
      <point x="189" y="612" type="curve" smooth="yes"/>
      <point x="189" y="566"/>
      <point x="199" y="490"/>
      <point x="222" y="444" type="curve"/>
      <point x="41" y="311" type="line"/>
      <point x="41" y="230"/>
      <point x="173" y="72"/>
    </contour>
    <contour>
      <point x="501" y="508" type="curve"/>
      <point x="486" y="548"/>
      <point x="478" y="581"/>
      <point x="478" y="613" type="curve" smooth="yes"/>
      <point x="478" y="652"/>
      <point x="490" y="689"/>
      <point x="514" y="731" type="curve"/>
      <point x="527" y="739"/>
      <point x="571" y="743"/>
      <point x="606" y="742" type="curve" smooth="yes"/>
      <point x="650" y="741"/>
      <point x="706" y="732"/>
      <point x="722" y="716" type="curve"/>
      <point x="735" y="677"/>
      <point x="742" y="644"/>
      <point x="742" y="612" type="curve" smooth="yes"/>
      <point x="742" y="573"/>
      <point x="731" y="536"/>
      <point x="709" y="493" type="curve"/>
      <point x="696" y="485"/>
      <point x="652" y="481"/>
      <point x="617" y="482" type="curve" smooth="yes"/>
      <point x="573" y="483"/>
      <point x="517" y="492"/>
    </contour>
  </outline>
</glyph>
<glyph name="yen" format="1">
  <advance width="1245"/>
  <unicode hex="00A5"/>
  <outline>
    <contour>
      <point x="173" y="35" type="curve"/>
      <point x="389" y="30" type="line"/>
      <point x="388" y="-15"/>
      <point x="387" y="-57"/>
      <point x="387" y="-94" type="curve"/>
      <point x="408" y="-173"/>
      <point x="508" y="-220"/>
      <point x="597" y="-220" type="curve" smooth="yes"/>
      <point x="652" y="-220"/>
      <point x="704" y="-202"/>
      <point x="729" y="-161" type="curve"/>
      <point x="728" y="-119"/>
      <point x="727" y="-76"/>
      <point x="727" y="-34" type="curve" smooth="yes"/>
      <point x="727" y="22" type="line"/>
      <point x="949" y="17" type="line"/>
      <point x="978" y="42"/>
      <point x="1002" y="136"/>
      <point x="1002" y="206" type="curve" smooth="yes"/>
      <point x="1002" y="238"/>
      <point x="997" y="264"/>
      <point x="986" y="277" type="curve"/>
      <point x="734" y="266" type="line"/>
      <point x="736" y="313"/>
      <point x="738" y="359"/>
      <point x="741" y="403" type="curve"/>
      <point x="999" y="398" type="line"/>
      <point x="1029" y="431"/>
      <point x="1051" y="518"/>
      <point x="1051" y="586" type="curve" smooth="yes"/>
      <point x="1051" y="616"/>
      <point x="1046" y="642"/>
      <point x="1036" y="658" type="curve"/>
      <point x="811" y="649" type="line"/>
      <point x="971" y="807"/>
      <point x="1235" y="1129"/>
      <point x="1235" y="1331" type="curve" smooth="yes"/>
      <point x="1235" y="1353"/>
      <point x="1232" y="1377"/>
      <point x="1224" y="1404" type="curve" smooth="yes"/>
      <point x="1195" y="1503"/>
      <point x="1116" y="1552"/>
      <point x="989" y="1552" type="curve" smooth="yes"/>
      <point x="852" y="1552"/>
      <point x="716" y="1481"/>
      <point x="677" y="1432" type="curve"/>
      <point x="677" y="1409" type="line" smooth="yes"/>
      <point x="677" y="1349"/>
      <point x="684" y="1306"/>
      <point x="701" y="1237" type="curve"/>
      <point x="825" y="1216" type="line"/>
      <point x="797" y="1098"/>
      <point x="696" y="867"/>
      <point x="616" y="712" type="curve"/>
      <point x="613" y="713" type="line"/>
      <point x="551" y="986"/>
      <point x="440" y="1369"/>
      <point x="418" y="1416" type="curve"/>
      <point x="412" y="1419" type="line"/>
      <point x="373" y="1506"/>
      <point x="289" y="1550"/>
      <point x="168" y="1550" type="curve" smooth="yes"/>
      <point x="31" y="1550"/>
      <point x="-85" y="1479"/>
      <point x="-124" y="1430" type="curve"/>
      <point x="-124" y="1407" type="line" smooth="yes"/>
      <point x="-124" y="1345"/>
      <point x="-117" y="1294"/>
      <point x="-100" y="1225" type="curve"/>
      <point x="34" y="1204" type="line"/>
      <point x="38" y="1205" type="line"/>
      <point x="110" y="1003"/>
      <point x="262" y="768"/>
      <point x="360" y="631" type="curve"/>
      <point x="154" y="623" type="line"/>
      <point x="139" y="603"/>
      <point x="135" y="566"/>
      <point x="135" y="527" type="curve" smooth="yes"/>
      <point x="135" y="484"/>
      <point x="141" y="439"/>
      <point x="145" y="416" type="curve"/>
      <point x="391" y="411" type="line"/>
      <point x="390" y="384"/>
      <point x="390" y="358"/>
      <point x="390" y="331" type="curve" smooth="yes"/>
      <point x="390" y="304"/>
      <point x="390" y="277"/>
      <point x="390" y="251" type="curve"/>
      <point x="184" y="242" type="line"/>
      <point x="168" y="215"/>
      <point x="163" y="184"/>
      <point x="163" y="149" type="curve" smooth="yes"/>
      <point x="163" y="114"/>
      <point x="168" y="75"/>
    </contour>
  </outline>
</glyph>
<glyph name="brokenbar" format="1">
  <advance width="636"/>
  <unicode hex="00A6"/>
  <outline>
    <contour>
      <point x="173" y="793" type="line"/>
      <point x="228" y="785"/>
      <point x="288" y="775"/>
      <point x="348" y="775" type="curve" smooth="yes"/>
      <point x="394" y="775"/>
      <point x="441" y="781"/>
      <point x="486" y="796" type="curve"/>
      <point x="492" y="1838" type="line"/>
      <point x="466" y="1845"/>
      <point x="431" y="1849"/>
      <point x="394" y="1849" type="curve" smooth="yes"/>
      <point x="301" y="1849"/>
      <point x="190" y="1828"/>
      <point x="144" y="1796" type="curve"/>
    </contour>
    <contour>
      <point x="202" y="-293" type="line"/>
      <point x="243" y="-307"/>
      <point x="286" y="-314"/>
      <point x="330" y="-314" type="curve" smooth="yes"/>
      <point x="379" y="-314"/>
      <point x="430" y="-305"/>
      <point x="482" y="-289" type="curve"/>
      <point x="486" y="493" type="line"/>
      <point x="426" y="514"/>
      <point x="360" y="528"/>
      <point x="293" y="528" type="curve" smooth="yes"/>
      <point x="255" y="528"/>
      <point x="217" y="524"/>
      <point x="180" y="513" type="curve"/>
    </contour>
  </outline>
</glyph>
<glyph name="section" format="1">
  <advance width="1027"/>
  <unicode hex="00A7"/>
  <outline>
    <contour>
      <point x="110" y="82" type="curve"/>
      <point x="190" y="-50"/>
      <point x="367" y="-81"/>
      <point x="466" y="-81" type="curve" smooth="yes"/>
      <point x="573" y="-81"/>
      <point x="652" y="-71"/>
      <point x="723" y="-45" type="curve" smooth="yes"/>
      <point x="847" y="1"/>
      <point x="949" y="110"/>
      <point x="949" y="267" type="curve" smooth="yes"/>
      <point x="949" y="367"/>
      <point x="895" y="449"/>
      <point x="817" y="512" type="curve"/>
      <point x="894" y="564"/>
      <point x="949" y="642"/>
      <point x="949" y="757" type="curve" smooth="yes"/>
      <point x="949" y="871"/>
      <point x="880" y="961"/>
      <point x="784" y="1027" type="curve" smooth="yes"/>
      <point x="702" y="1083"/>
      <point x="599" y="1119"/>
      <point x="518" y="1154" type="curve" smooth="yes"/>
      <point x="479" y="1171"/>
      <point x="428" y="1190"/>
      <point x="428" y="1237" type="curve" smooth="yes"/>
      <point x="428" y="1270"/>
      <point x="445" y="1297"/>
      <point x="472" y="1304" type="curve"/>
      <point x="567" y="1285"/>
      <point x="711" y="1213"/>
      <point x="835" y="1173" type="curve"/>
      <point x="894" y="1231"/>
      <point x="929" y="1368"/>
      <point x="929" y="1474" type="curve" smooth="yes"/>
      <point x="929" y="1501"/>
      <point x="927" y="1526"/>
      <point x="922" y="1547" type="curve"/>
      <point x="777" y="1615"/>
      <point x="578" y="1615"/>
      <point x="516" y="1615" type="curve" smooth="yes"/>
      <point x="207" y="1615"/>
      <point x="95" y="1449"/>
      <point x="95" y="1241" type="curve" smooth="yes"/>
      <point x="95" y="1116"/>
      <point x="141" y="1031"/>
      <point x="210" y="967" type="curve"/>
      <point x="129" y="904"/>
      <point x="95" y="819"/>
      <point x="95" y="751" type="curve" smooth="yes"/>
      <point x="95" y="441"/>
      <point x="377" y="380"/>
      <point x="597" y="260" type="curve" smooth="yes"/>
      <point x="615" y="250"/>
      <point x="620" y="238"/>
      <point x="620" y="227" type="curve" smooth="yes"/>
      <point x="620" y="215"/>
      <point x="616" y="202"/>
      <point x="612" y="197" type="curve"/>
      <point x="605" y="194"/>
      <point x="589" y="192"/>
      <point x="572" y="192" type="curve" smooth="yes"/>
      <point x="437" y="192"/>
      <point x="309" y="245"/>
      <point x="188" y="293" type="curve"/>
      <point x="122" y="209"/>
      <point x="111" y="156"/>
    </contour>
    <contour>
      <point x="518" y="658" type="curve"/>
      <point x="475" y="677"/>
      <point x="418" y="698"/>
      <point x="418" y="749" type="curve" smooth="yes"/>
      <point x="418" y="785"/>
      <point x="435" y="813"/>
      <point x="463" y="822" type="curve"/>
      <point x="510" y="800"/>
      <point x="559" y="776"/>
      <point x="605" y="752" type="curve" smooth="yes"/>
      <point x="625" y="742"/>
      <point x="630" y="728"/>
      <point x="630" y="717" type="curve" smooth="yes"/>
      <point x="630" y="682"/>
      <point x="611" y="654"/>
      <point x="586" y="629" type="curve"/>
      <point x="562" y="639"/>
      <point x="539" y="647"/>
    </contour>
  </outline>
</glyph>
<glyph name="logicalnot" format="1">
  <advance width="1098"/>
  <unicode hex="00AC"/>
  <outline>
    <contour>
      <point x="114" y="420" type="curve"/>
      <point x="716" y="421" type="line"/>
      <point x="707" y="246" type="line"/>
      <point x="745" y="231"/>
      <point x="782" y="222"/>
      <point x="817" y="222" type="curve" smooth="yes"/>
      <point x="871" y="222"/>
      <point x="919" y="243"/>
      <point x="962" y="292" type="curve"/>
      <point x="962" y="667" type="line"/>
      <point x="877" y="745" type="line"/>
      <point x="143" y="689" type="line"/>
      <point x="114" y="640"/>
      <point x="101" y="591"/>
      <point x="101" y="533" type="curve" smooth="yes"/>
      <point x="101" y="499"/>
      <point x="106" y="462"/>
    </contour>
  </outline>
</glyph>
<glyph name="threequarters" format="1">
  <advance width="2445"/>
  <unicode hex="00BE"/>
  <outline>
    <contour>
      <point x="1375" y="401" type="curve" smooth="yes"/>
      <point x="1375" y="310"/>
      <point x="1444" y="220"/>
      <point x="1515" y="201" type="curve"/>
      <point x="1610" y="208"/>
      <point x="1667" y="258"/>
      <point x="1711" y="333" type="curve"/>
      <point x="2000" y="243" type="line"/>
      <point x="1997" y="7" type="line"/>
      <point x="2040" y="-10"/>
      <point x="2080" y="-20"/>
      <point x="2129" y="-20" type="curve" smooth="yes"/>
      <point x="2183" y="-20"/>
      <point x="2221" y="-8"/>
      <point x="2269" y="18" type="curve"/>
      <point x="2309" y="321"/>
      <point x="2340" y="577"/>
      <point x="2346" y="808" type="curve"/>
      <point x="2298" y="840"/>
      <point x="2238" y="853"/>
      <point x="2178" y="853" type="curve" smooth="yes"/>
      <point x="2110" y="853"/>
      <point x="2041" y="834"/>
      <point x="1988" y="800" type="curve"/>
      <point x="1993" y="672"/>
      <point x="1990" y="622"/>
      <point x="1999" y="511" type="curve"/>
      <point x="1763" y="529" type="line"/>
      <point x="1855" y="738"/>
      <point x="1903" y="906"/>
      <point x="1931" y="1114" type="curve"/>
      <point x="1898" y="1175"/>
      <point x="1806" y="1185"/>
      <point x="1770" y="1185" type="curve" smooth="yes"/>
      <point x="1679" y="1185"/>
      <point x="1583" y="1155"/>
      <point x="1529" y="1085" type="curve"/>
      <point x="1533" y="950"/>
      <point x="1543" y="838"/>
      <point x="1543" y="724" type="curve" smooth="yes"/>
      <point x="1543" y="677"/>
      <point x="1542" y="629"/>
      <point x="1537" y="580" type="curve"/>
      <point x="1494" y="589"/>
      <point x="1449" y="597"/>
      <point x="1437" y="597" type="curve"/>
      <point x="1385" y="551"/>
      <point x="1375" y="472"/>
    </contour>
    <component base="threesuperior" xOffset="-76" yOffset="207"/>
    <component base="fraction" xOffset="442"/>
  </outline>
</glyph>
<glyph name="multiply" format="1">
  <advance width="1086"/>
  <unicode hex="00D7"/>
  <outline>
    <contour>
      <point x="106" y="285" type="line"/>
      <point x="137" y="216"/>
      <point x="205" y="146"/>
      <point x="334" y="100" type="curve"/>
      <point x="543" y="356" type="line"/>
      <point x="788" y="95" type="line"/>
      <point x="857" y="127"/>
      <point x="930" y="199"/>
      <point x="976" y="326" type="curve"/>
      <point x="724" y="550" type="line"/>
      <point x="980" y="780" type="line"/>
      <point x="949" y="849"/>
      <point x="881" y="919"/>
      <point x="752" y="965" type="curve"/>
      <point x="539" y="711" type="line"/>
      <point x="297" y="969" type="line"/>
      <point x="228" y="937"/>
      <point x="155" y="866"/>
      <point x="109" y="739" type="curve"/>
      <point x="353" y="515" type="line"/>
    </contour>
  </outline>
</glyph>
<glyph name="Oslash" format="1">
  <advance width="1387"/>
  <unicode hex="00D8"/>
  <outline>
    <contour>
      <point x="152" y="-176" type="line"/>
      <point x="174" y="-243"/>
      <point x="246" y="-280"/>
      <point x="308" y="-280" type="curve" smooth="yes"/>
      <point x="333" y="-280"/>
      <point x="356" y="-274"/>
      <point x="374" y="-262" type="curve"/>
      <point x="524" y="-4" type="line"/>
      <point x="574" y="-14"/>
      <point x="630" y="-20"/>
      <point x="691" y="-20" type="curve" smooth="yes"/>
      <point x="1170" y="-20"/>
      <point x="1320" y="325"/>
      <point x="1320" y="756" type="curve" smooth="yes"/>
      <point x="1320" y="991"/>
      <point x="1288" y="1203"/>
      <point x="1178" y="1348" type="curve"/>
      <point x="1263" y="1451"/>
      <point x="1341" y="1559"/>
      <point x="1380" y="1631" type="curve"/>
      <point x="1323" y="1747"/>
      <point x="1157" y="1820"/>
      <point x="1067" y="1813" type="curve"/>
      <point x="937" y="1515" type="line"/>
      <point x="868" y="1538"/>
      <point x="786" y="1550"/>
      <point x="691" y="1550" type="curve" smooth="yes"/>
      <point x="209" y="1550"/>
      <point x="67" y="1194"/>
      <point x="67" y="756" type="curve" smooth="yes"/>
      <point x="67" y="497"/>
      <point x="117" y="272"/>
      <point x="259" y="132" type="curve"/>
    </contour>
    <contour>
      <point x="548" y="330" type="curve"/>
      <point x="520" y="423"/>
      <point x="496" y="624"/>
      <point x="496" y="811" type="curve" smooth="yes"/>
      <point x="496" y="961"/>
      <point x="511" y="1101"/>
      <point x="552" y="1171" type="curve"/>
      <point x="568" y="1180"/>
      <point x="608" y="1185"/>
      <point x="653" y="1185" type="curve" smooth="yes"/>
      <point x="725" y="1184"/>
      <point x="800" y="1172"/>
      <point x="835" y="1144" type="curve"/>
      <point x="868" y="1076"/>
      <point x="886" y="889"/>
      <point x="886" y="707" type="curve" smooth="yes"/>
      <point x="886" y="536"/>
      <point x="870" y="369"/>
      <point x="835" y="308" type="curve"/>
      <point x="827" y="302"/>
      <point x="788" y="299"/>
      <point x="741" y="299" type="curve" smooth="yes"/>
      <point x="665" y="299"/>
      <point x="568" y="308"/>
    </contour>
  </outline>
</glyph>
<glyph name="germandbls" format="1">
  <advance width="1378"/>
  <unicode hex="00DF"/>
  <outline>
    <contour>
      <point x="-79" y="-99" type="curve"/>
      <point x="-106" y="-173"/>
      <point x="-128" y="-218"/>
      <point x="-128" y="-280" type="curve" smooth="yes"/>
      <point x="-128" y="-290"/>
      <point x="-127" y="-301"/>
      <point x="-126" y="-312" type="curve"/>
      <point x="-66" y="-429"/>
      <point x="45" y="-432"/>
      <point x="125" y="-432" type="curve" smooth="yes"/>
      <point x="234" y="-432"/>
      <point x="330" y="-402"/>
      <point x="387" y="-326" type="curve" smooth="yes"/>
      <point x="434" y="-263"/>
      <point x="449" y="-178"/>
      <point x="459" y="-87" type="curve" smooth="yes"/>
      <point x="486" y="151"/>
      <point x="502" y="431"/>
      <point x="502" y="700" type="curve" smooth="yes"/>
      <point x="502" y="863"/>
      <point x="498" y="1040"/>
      <point x="498" y="1283" type="curve"/>
      <point x="514" y="1284"/>
      <point x="533" y="1285"/>
      <point x="554" y="1285" type="curve" smooth="yes"/>
      <point x="628" y="1285"/>
      <point x="701" y="1277"/>
      <point x="752" y="1258" type="curve"/>
      <point x="768" y="1221"/>
      <point x="768" y="1179"/>
      <point x="768" y="1145" type="curve"/>
      <point x="687" y="1061"/>
      <point x="613" y="966"/>
      <point x="613" y="821" type="curve" smooth="yes"/>
      <point x="613" y="560"/>
      <point x="768" y="490"/>
      <point x="980" y="385" type="curve" smooth="yes"/>
      <point x="991" y="379"/>
      <point x="996" y="351"/>
      <point x="996" y="332" type="curve" smooth="yes"/>
      <point x="996" y="311"/>
      <point x="990" y="293"/>
      <point x="982" y="282" type="curve"/>
      <point x="830" y="282"/>
      <point x="759" y="314"/>
      <point x="627" y="368" type="curve"/>
      <point x="561" y="284"/>
      <point x="570" y="196"/>
      <point x="569" y="122" type="curve"/>
      <point x="636" y="7"/>
      <point x="782" y="-23"/>
      <point x="921" y="-23" type="curve" smooth="yes"/>
      <point x="1159" y="-23"/>
      <point x="1348" y="143"/>
      <point x="1348" y="379" type="curve" smooth="yes"/>
      <point x="1348" y="542"/>
      <point x="1268" y="608"/>
      <point x="1145" y="684" type="curve" smooth="yes"/>
      <point x="1060" y="736"/>
      <point x="950" y="792"/>
      <point x="950" y="831" type="curve" smooth="yes"/>
      <point x="950" y="835"/>
      <point x="951" y="839"/>
      <point x="952" y="843" type="curve"/>
      <point x="1084" y="973"/>
      <point x="1166" y="1122"/>
      <point x="1166" y="1266" type="curve" smooth="yes"/>
      <point x="1166" y="1592"/>
      <point x="875" y="1623"/>
      <point x="619" y="1623" type="curve" smooth="yes"/>
      <point x="251" y="1623"/>
      <point x="119" y="1405"/>
      <point x="119" y="1141" type="curve" smooth="yes"/>
      <point x="119" y="830"/>
      <point x="121" y="323"/>
      <point x="135" y="-28" type="curve"/>
      <point x="135" y="-89"/>
      <point x="132" y="-121"/>
      <point x="123" y="-145" type="curve"/>
      <point x="53" y="-126"/>
      <point x="-14" y="-125"/>
    </contour>
  </outline>
</glyph>
<glyph name="ae" format="1">
  <advance width="1711"/>
  <unicode hex="00E6"/>
  <outline>
    <contour>
      <point x="65" y="320" type="curve" smooth="yes"/>
      <point x="65" y="76"/>
      <point x="246" y="-22"/>
      <point x="395" y="-22" type="curve" smooth="yes"/>
      <point x="519" y="-22"/>
      <point x="672" y="32"/>
      <point x="743" y="213" type="curve"/>
      <point x="822" y="71"/>
      <point x="958" y="-19"/>
      <point x="1155" y="-19" type="curve" smooth="yes"/>
      <point x="1395" y="-19"/>
      <point x="1591" y="154"/>
      <point x="1634" y="204" type="curve"/>
      <point x="1624" y="304"/>
      <point x="1588" y="354"/>
      <point x="1541" y="401" type="curve"/>
      <point x="1438" y="357"/>
      <point x="1294" y="305"/>
      <point x="1205" y="305" type="curve" smooth="yes"/>
      <point x="1065" y="305"/>
      <point x="1034" y="414"/>
      <point x="1027" y="504" type="curve"/>
      <point x="1131" y="484"/>
      <point x="1206" y="476"/>
      <point x="1287" y="476" type="curve" smooth="yes"/>
      <point x="1325" y="476"/>
      <point x="1365" y="478"/>
      <point x="1409" y="481" type="curve"/>
      <point x="1504" y="517"/>
      <point x="1583" y="583"/>
      <point x="1636" y="648" type="curve"/>
      <point x="1643" y="692"/>
      <point x="1648" y="738"/>
      <point x="1648" y="784" type="curve" smooth="yes"/>
      <point x="1648" y="906"/>
      <point x="1616" y="1028"/>
      <point x="1519" y="1098" type="curve"/>
      <point x="1437" y="1169"/>
      <point x="1252" y="1186"/>
      <point x="1180" y="1186" type="curve" smooth="yes"/>
      <point x="1040" y="1186"/>
      <point x="933" y="1135"/>
      <point x="854" y="1061" type="curve"/>
      <point x="766" y="1142"/>
      <point x="658" y="1185"/>
      <point x="527" y="1185" type="curve" smooth="yes"/>
      <point x="246" y="1185"/>
      <point x="106" y="1059"/>
      <point x="108" y="1059" type="curve"/>
      <point x="106" y="1048"/>
      <point x="106" y="1036"/>
      <point x="106" y="1024" type="curve" smooth="yes"/>
      <point x="106" y="943"/>
      <point x="138" y="862"/>
      <point x="195" y="768" type="curve"/>
      <point x="265" y="790"/>
      <point x="365" y="821"/>
      <point x="455" y="821" type="curve" smooth="yes"/>
      <point x="605" y="821"/>
      <point x="639" y="779"/>
      <point x="645" y="768" type="curve"/>
      <point x="649" y="750"/>
      <point x="651" y="685"/>
      <point x="651" y="649" type="curve" smooth="yes"/>
      <point x="651" y="618" type="line"/>
      <point x="578" y="639"/>
      <point x="473" y="659"/>
      <point x="389" y="659" type="curve" smooth="yes"/>
      <point x="180" y="659"/>
      <point x="65" y="543"/>
    </contour>
    <contour>
      <point x="1030" y="676" type="line"/>
      <point x="1036" y="735"/>
      <point x="1051" y="785"/>
      <point x="1073" y="828" type="curve"/>
      <point x="1081" y="836"/>
      <point x="1128" y="844"/>
      <point x="1167" y="844" type="curve" smooth="yes"/>
      <point x="1212" y="844"/>
      <point x="1263" y="833"/>
      <point x="1283" y="812" type="curve"/>
      <point x="1297" y="702" type="line"/>
    </contour>
    <contour>
      <point x="435" y="365" type="curve" smooth="yes"/>
      <point x="435" y="404"/>
      <point x="452" y="428"/>
      <point x="467" y="445" type="curve"/>
      <point x="481" y="451"/>
      <point x="506" y="453"/>
      <point x="537" y="453" type="curve" smooth="yes"/>
      <point x="572" y="453"/>
      <point x="612" y="450"/>
      <point x="650" y="446" type="curve"/>
      <point x="656" y="422" type="line"/>
      <point x="645" y="361"/>
      <point x="553" y="287"/>
      <point x="503" y="278" type="curve"/>
      <point x="452" y="283"/>
      <point x="435" y="329"/>
    </contour>
  </outline>
</glyph>
<glyph name="idieresis" format="1">
  <advance width="716"/>
  <unicode hex="00EF"/>
  <outline>
    <contour>
      <point x="570" y="1254" type="curve" smooth="yes"/>
      <point x="675" y="1254"/>
      <point x="766" y="1357"/>
      <point x="770" y="1462" type="curve" smooth="yes"/>
      <point x="773" y="1552"/>
      <point x="729" y="1633"/>
      <point x="589" y="1633" type="curve" smooth="yes"/>
      <point x="462" y="1633"/>
      <point x="389" y="1578"/>
      <point x="389" y="1454" type="curve" smooth="yes"/>
      <point x="389" y="1352"/>
      <point x="463" y="1254"/>
    </contour>
    <contour>
      <point x="127" y="1254" type="curve" smooth="yes"/>
      <point x="232" y="1254"/>
      <point x="320" y="1357"/>
      <point x="327" y="1462" type="curve" smooth="yes"/>
      <point x="333" y="1552"/>
      <point x="289" y="1633"/>
      <point x="146" y="1633" type="curve" smooth="yes"/>
      <point x="19" y="1633"/>
      <point x="-54" y="1578"/>
      <point x="-54" y="1454" type="curve" smooth="yes"/>
      <point x="-54" y="1343"/>
      <point x="15" y="1254"/>
    </contour>
    <component base="idotless"/>
  </outline>
</glyph>
<glyph name="eth" format="1">
  <advance width="1175"/>
  <unicode hex="00F0"/>
  <outline>
    <contour>
      <point x="54" y="501" type="curve" smooth="yes"/>
      <point x="54" y="151"/>
      <point x="248" y="-20"/>
      <point x="583" y="-20" type="curve" smooth="yes"/>
      <point x="933" y="-20"/>
      <point x="1108" y="274"/>
      <point x="1108" y="613" type="curve" smooth="yes"/>
      <point x="1108" y="1007"/>
      <point x="873" y="1226"/>
      <point x="618" y="1404" type="curve"/>
      <point x="756" y="1547" type="line"/>
      <point x="715" y="1648"/>
      <point x="583" y="1686"/>
      <point x="520" y="1693" type="curve"/>
      <point x="392" y="1537" type="line"/>
      <point x="318" y="1572"/>
      <point x="241" y="1601"/>
      <point x="161" y="1626" type="curve"/>
      <point x="107" y="1602"/>
      <point x="34" y="1470"/>
      <point x="34" y="1415" type="curve"/>
      <point x="208" y="1313" type="line"/>
      <point x="99" y="1181" type="line"/>
      <point x="127" y="1101"/>
      <point x="214" y="1071"/>
      <point x="286" y="1059" type="curve"/>
      <point x="409" y="1186" type="line"/>
      <point x="474" y="1126"/>
      <point x="551" y="1041"/>
      <point x="601" y="986" type="curve"/>
      <point x="564" y="1002"/>
      <point x="519" y="1013"/>
      <point x="463" y="1013" type="curve" smooth="yes"/>
      <point x="403" y="1013"/>
      <point x="325" y="993"/>
      <point x="256" y="958" type="curve" smooth="yes"/>
      <point x="137" y="898"/>
      <point x="54" y="779"/>
    </contour>
    <contour>
      <point x="483" y="299" type="curve"/>
      <point x="464" y="365"/>
      <point x="454" y="439"/>
      <point x="454" y="510" type="curve" smooth="yes"/>
      <point x="454" y="590"/>
      <point x="467" y="667"/>
      <point x="494" y="720" type="curve"/>
      <point x="526" y="738"/>
      <point x="598" y="760"/>
      <point x="652" y="760" type="curve" smooth="yes"/>
      <point x="661" y="760"/>
      <point x="670" y="759"/>
      <point x="678" y="758" type="curve"/>
      <point x="703" y="704"/>
      <point x="717" y="613"/>
      <point x="717" y="522" type="curve" smooth="yes"/>
      <point x="717" y="428"/>
      <point x="702" y="335"/>
      <point x="671" y="281" type="curve"/>
      <point x="664" y="276"/>
      <point x="639" y="273"/>
      <point x="609" y="273" type="curve" smooth="yes"/>
      <point x="561" y="273"/>
      <point x="500" y="280"/>
    </contour>
  </outline>
</glyph>
<glyph name="divide" format="1">
  <advance width="1102"/>
  <unicode hex="00F7"/>
  <outline>
    <contour>
      <point x="119" y="434" type="curve"/>
      <point x="275" y="425"/>
      <point x="451" y="421"/>
      <point x="624" y="421" type="curve" smooth="yes"/>
      <point x="724" y="421"/>
      <point x="823" y="422"/>
      <point x="915" y="425" type="curve"/>
      <point x="958" y="509"/>
      <point x="990" y="583"/>
      <point x="990" y="659" type="curve" smooth="yes"/>
      <point x="990" y="678"/>
      <point x="988" y="698"/>
      <point x="983" y="718" type="curve"/>
      <point x="175" y="673" type="line"/>
      <point x="137" y="609"/>
      <point x="116" y="565"/>
      <point x="116" y="489" type="curve" smooth="yes"/>
      <point x="116" y="473"/>
      <point x="117" y="454"/>
    </contour>
    <component base="period" xOffset="240" yOffset="799" xScale="0.913" yScale="0.912"/>
    <component base="period" xOffset="240" yOffset="-22" xScale="0.913" yScale="0.912"/>
  </outline>
</glyph>
<glyph name="oslash" format="1">
  <advance width="1190"/>
  <unicode hex="00F8"/>
  <outline>
    <contour>
      <point x="85" y="-56" type="line"/>
      <point x="104" y="-128"/>
      <point x="179" y="-171"/>
      <point x="244" y="-171" type="curve" smooth="yes"/>
      <point x="265" y="-171"/>
      <point x="285" y="-166"/>
      <point x="301" y="-157" type="curve"/>
      <point x="415" y="1" type="line"/>
      <point x="464" y="-12"/>
      <point x="520" y="-20"/>
      <point x="583" y="-20" type="curve" smooth="yes"/>
      <point x="947" y="-20"/>
      <point x="1123" y="244"/>
      <point x="1123" y="581" type="curve" smooth="yes"/>
      <point x="1123" y="766"/>
      <point x="1094" y="923"/>
      <point x="1008" y="1030" type="curve"/>
      <point x="1077" y="1116"/>
      <point x="1137" y="1198"/>
      <point x="1170" y="1259" type="curve"/>
      <point x="1113" y="1375"/>
      <point x="947" y="1448"/>
      <point x="857" y="1441" type="curve"/>
      <point x="741" y="1174" type="line"/>
      <point x="699" y="1181"/>
      <point x="654" y="1185"/>
      <point x="604" y="1185" type="curve" smooth="yes"/>
      <point x="230" y="1185"/>
      <point x="64" y="942"/>
      <point x="67" y="581" type="curve" smooth="yes"/>
      <point x="68" y="415"/>
      <point x="101" y="265"/>
      <point x="182" y="156" type="curve"/>
    </contour>
    <contour>
      <point x="498" y="299" type="curve"/>
      <point x="477" y="374"/>
      <point x="459" y="480"/>
      <point x="459" y="582" type="curve" smooth="yes"/>
      <point x="459" y="672"/>
      <point x="473" y="759"/>
      <point x="509" y="821" type="curve"/>
      <point x="522" y="829"/>
      <point x="555" y="833"/>
      <point x="590" y="832" type="curve" smooth="yes"/>
      <point x="634" y="831"/>
      <point x="680" y="823"/>
      <point x="695" y="806" type="curve"/>
      <point x="720" y="753"/>
      <point x="733" y="653"/>
      <point x="733" y="552" type="curve" smooth="yes"/>
      <point x="733" y="445"/>
      <point x="718" y="336"/>
      <point x="686" y="281" type="curve"/>
      <point x="679" y="276"/>
      <point x="654" y="273"/>
      <point x="624" y="273" type="curve" smooth="yes"/>
      <point x="576" y="273"/>
      <point x="515" y="281"/>
    </contour>
  </outline>
</glyph>
<glyph name="hbar" format="1">
  <advance width="1299"/>
  <unicode hex="0127"/>
  <outline>
    <contour>
      <point x="152" y="34" type="curve"/>
      <point x="152" y="34"/>
      <point x="184" y="-20"/>
      <point x="351" y="-20" type="curve" smooth="yes"/>
      <point x="465" y="-20"/>
      <point x="540" y="17"/>
      <point x="563" y="60" type="curve"/>
      <point x="534" y="157"/>
      <point x="511" y="285"/>
      <point x="511" y="352" type="curve" smooth="yes"/>
      <point x="511" y="362"/>
      <point x="512" y="372"/>
      <point x="513" y="379" type="curve"/>
      <point x="542" y="450"/>
      <point x="660" y="664"/>
      <point x="712" y="731" type="curve"/>
      <point x="733" y="730"/>
      <point x="755" y="724"/>
      <point x="776" y="701" type="curve"/>
      <point x="766" y="580"/>
      <point x="752" y="344"/>
      <point x="752" y="205" type="curve" smooth="yes"/>
      <point x="752" y="27"/>
      <point x="856" y="-20"/>
      <point x="967" y="-20" type="curve" smooth="yes"/>
      <point x="1180" y="-20"/>
      <point x="1299" y="175"/>
      <point x="1299" y="175" type="curve"/>
      <point x="1291" y="246"/>
      <point x="1262" y="307"/>
      <point x="1208" y="353" type="curve"/>
      <point x="1060" y="291" type="line"/>
      <point x="1058" y="293" type="line"/>
      <point x="1090" y="388"/>
      <point x="1180" y="583"/>
      <point x="1180" y="812" type="curve" smooth="yes"/>
      <point x="1180" y="985"/>
      <point x="1121" y="1155"/>
      <point x="890" y="1155" type="curve" smooth="yes"/>
      <point x="610" y="1155"/>
      <point x="523" y="861"/>
      <point x="469" y="646" type="curve"/>
      <point x="467" y="641"/>
      <point x="462" y="639"/>
      <point x="457" y="639" type="curve" smooth="yes"/>
      <point x="447" y="639"/>
      <point x="435" y="646"/>
      <point x="435" y="655" type="curve"/>
      <point x="465" y="787"/>
      <point x="487" y="979"/>
      <point x="501" y="1143" type="curve"/>
      <point x="595" y="1149"/>
      <point x="672" y="1156"/>
      <point x="698" y="1158" type="curve"/>
      <point x="729" y="1185"/>
      <point x="742" y="1264"/>
      <point x="742" y="1338" type="curve" smooth="yes"/>
      <point x="742" y="1385"/>
      <point x="723" y="1455"/>
      <point x="705" y="1466" type="curve"/>
      <point x="644" y="1451"/>
      <point x="581" y="1440"/>
      <point x="518" y="1431" type="curve"/>
      <point x="518" y="1440" type="line" smooth="yes"/>
      <point x="518" y="1579"/>
      <point x="425" y="1613"/>
      <point x="321" y="1613" type="curve" smooth="yes"/>
      <point x="247" y="1613"/>
      <point x="184" y="1587"/>
      <point x="129" y="1541" type="curve"/>
      <point x="129" y="1391" type="line"/>
      <point x="83" y="1386"/>
      <point x="42" y="1380"/>
      <point x="8" y="1372" type="curve"/>
      <point x="2" y="1360"/>
      <point x="-1" y="1336"/>
      <point x="-1" y="1308" type="curve" smooth="yes"/>
      <point x="-1" y="1261"/>
      <point x="7" y="1202"/>
      <point x="22" y="1159" type="curve"/>
      <point x="46" y="1155"/>
      <point x="78" y="1147"/>
      <point x="130" y="1142" type="curve"/>
      <point x="132" y="821"/>
      <point x="135" y="457"/>
      <point x="135" y="348" type="curve" smooth="yes"/>
      <point x="135" y="148"/>
      <point x="152" y="34"/>
    </contour>
  </outline>
</glyph>
<glyph name="kgreenlandic" format="1">
  <advance width="1251"/>
  <unicode hex="0138"/>
  <outline>
    <contour>
      <point x="192" y="34" type="curve"/>
      <point x="227" y="-8"/>
      <point x="300" y="-20"/>
      <point x="371" y="-20" type="curve"/>
      <point x="407" y="-4"/>
      <point x="533" y="120"/>
      <point x="674" y="272" type="curve"/>
      <point x="708" y="108"/>
      <point x="774" y="-19"/>
      <point x="954" y="-19" type="curve" smooth="yes"/>
      <point x="1101" y="-19"/>
      <point x="1205" y="102"/>
      <point x="1214" y="346" type="curve"/>
      <point x="1091" y="439" type="line"/>
      <point x="1051" y="397"/>
      <point x="1017" y="355"/>
      <point x="977" y="335" type="curve"/>
      <point x="936" y="379"/>
      <point x="896" y="430"/>
      <point x="860" y="481" type="curve"/>
      <point x="964" y="603"/>
      <point x="1058" y="721"/>
      <point x="1111" y="805" type="curve" smooth="yes"/>
      <point x="1147" y="862"/>
      <point x="1167" y="914"/>
      <point x="1167" y="977" type="curve" smooth="yes"/>
      <point x="1167" y="1099"/>
      <point x="1080" y="1185"/>
      <point x="936" y="1185" type="curve" smooth="yes"/>
      <point x="788" y="1185"/>
      <point x="705" y="1114"/>
      <point x="666" y="1065" type="curve"/>
      <point x="666" y="1029" type="line" smooth="yes"/>
      <point x="666" y="975"/>
      <point x="668" y="925"/>
      <point x="678" y="868" type="curve"/>
      <point x="764" y="847" type="line"/>
      <point x="712" y="703"/>
      <point x="616" y="541"/>
      <point x="496" y="362" type="curve"/>
      <point x="479" y="372" type="line"/>
      <point x="523" y="528"/>
      <point x="580" y="787"/>
      <point x="580" y="926" type="curve" smooth="yes"/>
      <point x="580" y="1099"/>
      <point x="513" y="1185"/>
      <point x="322" y="1185" type="curve" smooth="yes"/>
      <point x="185" y="1185"/>
      <point x="68" y="1114"/>
      <point x="29" y="1065" type="curve"/>
      <point x="29" y="1055"/>
      <point x="28" y="1046"/>
      <point x="28" y="1037" type="curve" smooth="yes"/>
      <point x="28" y="979"/>
      <point x="34" y="930"/>
      <point x="51" y="863" type="curve"/>
      <point x="174" y="842" type="line"/>
      <point x="172" y="767"/>
      <point x="171" y="693"/>
      <point x="171" y="618" type="curve" smooth="yes"/>
      <point x="171" y="423"/>
      <point x="178" y="227"/>
    </contour>
  </outline>
</glyph>
<glyph name="gravecomb" format="1">
  <advance width="0"/>
  <unicode hex="0300"/>
  <outline>
    <contour>
      <point x="166" y="1268" type="curve"/>
      <point x="213" y="1292"/>
      <point x="275" y="1353"/>
      <point x="291" y="1415" type="curve"/>
      <point x="-39" y="1793" type="line"/>
      <point x="-197" y="1718"/>
      <point x="-267" y="1618"/>
      <point x="-290" y="1527" type="curve"/>
      <point x="-164" y="1410"/>
      <point x="3" y="1319"/>
    </contour>
    <contour>
      <point x="0" y="0" type="move" name="_top"/>
    </contour>
  </outline>
</glyph>
<glyph name="circumflexcomb" format="1">
  <advance width="0"/>
  <unicode hex="0302"/>
  <outline>
    <contour>
      <point x="253" y="1264" type="curve"/>
      <point x="318" y="1293"/>
      <point x="373" y="1344"/>
      <point x="413" y="1397" type="curve"/>
      <point x="157" y="1736" type="line"/>
      <point x="119" y="1743"/>
      <point x="62" y="1746"/>
      <point x="4" y="1746" type="curve" smooth="yes"/>
      <point x="-63" y="1746"/>
      <point x="-131" y="1741"/>
      <point x="-174" y="1729" type="curve"/>
      <point x="-412" y="1399" type="line"/>
      <point x="-382" y="1347"/>
      <point x="-336" y="1295"/>
      <point x="-273" y="1264" type="curve"/>
      <point x="-182" y="1310"/>
      <point x="-89" y="1383"/>
      <point x="-12" y="1469" type="curve"/>
      <point x="75" y="1385"/>
      <point x="154" y="1320"/>
    </contour>
    <contour>
      <point x="0" y="0" type="move" name="_top"/>
    </contour>
  </outline>
</glyph>
<glyph name="tildecomb" format="1">
  <advance width="0"/>
  <unicode hex="0303"/>
  <outline>
    <contour>
      <point x="129" y="1256" type="curve" smooth="yes"/>
      <point x="282" y="1256"/>
      <point x="392" y="1407"/>
      <point x="417" y="1518" type="curve"/>
      <point x="410" y="1589"/>
      <point x="345" y="1630"/>
      <point x="292" y="1656" type="curve"/>
      <point x="218" y="1598"/>
      <point x="180" y="1564"/>
      <point x="155" y="1553" type="curve"/>
      <point x="87" y="1590"/>
      <point x="-32" y="1657"/>
      <point x="-120" y="1657" type="curve" smooth="yes"/>
      <point x="-260" y="1657"/>
      <point x="-399" y="1502"/>
      <point x="-416" y="1393" type="curve"/>
      <point x="-410" y="1335"/>
      <point x="-362" y="1291"/>
      <point x="-318" y="1256" type="curve"/>
      <point x="-263" y="1299"/>
      <point x="-206" y="1343"/>
      <point x="-132" y="1375" type="curve"/>
      <point x="-74" y="1327"/>
      <point x="48" y="1256"/>
    </contour>
    <contour>
      <point x="0" y="0" type="move" name="_top"/>
    </contour>
  </outline>
</glyph>
<glyph name="caroncomb" format="1">
  <advance width="0"/>
  <unicode hex="030C"/>
  <outline>
    <contour>
      <point x="8" y="1294" type="curve" smooth="yes"/>
      <point x="47" y="1294"/>
      <point x="83" y="1296"/>
      <point x="105" y="1300" type="curve"/>
      <point x="391" y="1629" type="line"/>
      <point x="367" y="1678"/>
      <point x="293" y="1744"/>
      <point x="241" y="1767" type="curve"/>
      <point x="140" y="1698"/>
      <point x="101" y="1649"/>
      <point x="13" y="1541" type="curve"/>
      <point x="-139" y="1748" type="line"/>
      <point x="-234" y="1755"/>
      <point x="-386" y="1595"/>
      <point x="-390" y="1519" type="curve"/>
      <point x="-137" y="1305" type="line"/>
      <point x="-106" y="1298"/>
      <point x="-46" y="1294"/>
    </contour>
    <contour>
      <point x="0" y="0" type="move" name="_top"/>
    </contour>
  </outline>
</glyph>
<glyph name="commaaccentcomb" format="1">
  <advance width="0"/>
  <unicode hex="0326"/>
  <outline>
    <contour>
      <point x="-29" y="-84" type="curve" smooth="yes"/>
      <point x="-81" y="-84"/>
      <point x="-132" y="-93"/>
      <point x="-170" y="-108" type="curve"/>
      <point x="-179" y="-239"/>
      <point x="-196" y="-339"/>
      <point x="-234" y="-483" type="curve"/>
      <point x="-92" y="-540" type="line"/>
      <point x="30" y="-484"/>
      <point x="197" y="-304"/>
      <point x="214" y="-195" type="curve"/>
      <point x="180" y="-117"/>
      <point x="73" y="-84"/>
    </contour>
    <contour>
      <point x="0" y="0" type="move" name="_btm"/>
    </contour>
  </outline>
</glyph>
    <dict>
      <key>com.typemytype.robofont.mark</key>
      <array>
        <real>0.656</real>
        <integer>1</integer>
        <real>0.6</real>
        <integer>1</integer>
      </array>
    </dict>
  </lib>
</glyph>
<glyph name="cedillacomb" format="1">
  <advance width="0"/>
  <unicode hex="0327"/>
  <outline>
    <contour>
      <point x="-54" y="82" type="line"/>
      <point x="-109" y="44"/>
      <point x="-140" y="-39"/>
      <point x="-140" y="-113" type="curve" smooth="yes"/>
      <point x="-140" y="-134"/>
      <point x="-138" y="-155"/>
      <point x="-133" y="-173" type="curve"/>
      <point x="-91" y="-211"/>
      <point x="-14" y="-204"/>
      <point x="50" y="-217" type="curve"/>
      <point x="66" y="-234"/>
      <point x="57" y="-267"/>
      <point x="43" y="-280" type="curve"/>
      <point x="28" y="-285"/>
      <point x="16" y="-289"/>
      <point x="1" y="-289" type="curve" smooth="yes"/>
      <point x="-31" y="-289"/>
      <point x="-75" y="-272"/>
      <point x="-177" y="-211" type="curve"/>
      <point x="-211" y="-233"/>
      <point x="-234" y="-256"/>
      <point x="-247" y="-298" type="curve"/>
      <point x="-222" y="-413"/>
      <point x="-101" y="-432"/>
      <point x="-13" y="-432" type="curve" smooth="yes"/>
      <point x="117" y="-432"/>
      <point x="248" y="-342"/>
      <point x="248" y="-177" type="curve" smooth="yes"/>
      <point x="248" y="-68"/>
      <point x="142" y="-46"/>
      <point x="124" y="-46" type="curve"/>
      <point x="109" y="-47"/>
      <point x="54" y="-55"/>
      <point x="30" y="-64" type="curve"/>
      <point x="28" y="-59"/>
      <point x="27" y="-48"/>
      <point x="27" y="-35" type="curve" smooth="yes"/>
      <point x="27" y="-2"/>
      <point x="32" y="45"/>
      <point x="32" y="59" type="curve"/>
    </contour>
    <contour>
      <point x="-50" y="0" type="move" name="_btm"/>
    </contour>
  </outline>
</glyph>
<glyph name="emdash" format="1">
  <advance width="2004"/>
  <unicode hex="2014"/>
  <outline>
    <contour>
      <point x="112" y="417" type="curve"/>
      <point x="258" y="412"/>
      <point x="535" y="410"/>
      <point x="826" y="410" type="curve" smooth="yes"/>
      <point x="1291" y="410"/>
      <point x="1789" y="415"/>
      <point x="1840" y="419" type="curve"/>
      <point x="1869" y="490"/>
      <point x="1889" y="573"/>
      <point x="1889" y="649" type="curve" smooth="yes"/>
      <point x="1889" y="686"/>
      <point x="1884" y="722"/>
      <point x="1873" y="754" type="curve"/>
      <point x="140" y="689" type="line"/>
      <point x="115" y="637"/>
      <point x="100" y="584"/>
      <point x="100" y="521" type="curve" smooth="yes"/>
      <point x="100" y="489"/>
      <point x="104" y="455"/>
    </contour>
  </outline>
</glyph>
<glyph name="dagger" format="1">
  <advance width="909"/>
  <unicode hex="2020"/>
  <outline>
    <contour>
      <point x="327" y="357" type="line"/>
      <point x="368" y="343"/>
      <point x="407" y="336"/>
      <point x="446" y="336" type="curve" smooth="yes"/>
      <point x="490" y="336"/>
      <point x="535" y="345"/>
      <point x="587" y="361" type="curve"/>
      <point x="604" y="1195" type="line"/>
      <point x="680" y="1184"/>
      <point x="758" y="1172"/>
      <point x="829" y="1174" type="curve"/>
      <point x="858" y="1246"/>
      <point x="878" y="1324"/>
      <point x="878" y="1397" type="curve" smooth="yes"/>
      <point x="878" y="1432"/>
      <point x="874" y="1466"/>
      <point x="863" y="1497" type="curve"/>
      <point x="610" y="1476" type="line"/>
      <point x="617" y="1788" type="line"/>
      <point x="591" y="1795"/>
      <point x="555" y="1799"/>
      <point x="515" y="1799" type="curve" smooth="yes"/>
      <point x="417" y="1799"/>
      <point x="295" y="1778"/>
      <point x="249" y="1746" type="curve"/>
      <point x="265" y="1458" type="line"/>
      <point x="70" y="1452" type="line"/>
      <point x="45" y="1400"/>
      <point x="30" y="1349"/>
      <point x="30" y="1287" type="curve" smooth="yes"/>
      <point x="30" y="1256"/>
      <point x="34" y="1221"/>
      <point x="42" y="1183" type="curve"/>
      <point x="279" y="1200" type="line"/>
    </contour>
  </outline>
</glyph>
<glyph name="daggerdbl" format="1">
  <advance width="909"/>
  <unicode hex="2021"/>
  <outline>
    <contour>
      <point x="327" y="357" type="line"/>
      <point x="368" y="343"/>
      <point x="407" y="336"/>
      <point x="446" y="336" type="curve" smooth="yes"/>
      <point x="490" y="336"/>
      <point x="535" y="345"/>
      <point x="587" y="361" type="curve"/>
      <point x="592" y="754" type="line"/>
      <point x="676" y="743"/>
      <point x="763" y="728"/>
      <point x="842" y="730" type="curve"/>
      <point x="871" y="802"/>
      <point x="891" y="880"/>
      <point x="891" y="953" type="curve" smooth="yes"/>
      <point x="891" y="988"/>
      <point x="887" y="1022"/>
      <point x="876" y="1053" type="curve"/>
      <point x="596" y="1030" type="line"/>
      <point x="598" y="1196" type="line"/>
      <point x="676" y="1185"/>
      <point x="756" y="1172"/>
      <point x="829" y="1174" type="curve"/>
      <point x="858" y="1246"/>
      <point x="878" y="1324"/>
      <point x="878" y="1397" type="curve" smooth="yes"/>
      <point x="878" y="1432"/>
      <point x="874" y="1466"/>
      <point x="863" y="1497" type="curve"/>
      <point x="610" y="1476" type="line"/>
      <point x="617" y="1788" type="line"/>
      <point x="591" y="1795"/>
      <point x="555" y="1799"/>
      <point x="515" y="1799" type="curve" smooth="yes"/>
      <point x="417" y="1799"/>
      <point x="295" y="1778"/>
      <point x="249" y="1746" type="curve"/>
      <point x="265" y="1458" type="line"/>
      <point x="70" y="1452" type="line"/>
      <point x="45" y="1400"/>
      <point x="30" y="1349"/>
      <point x="30" y="1287" type="curve" smooth="yes"/>
      <point x="30" y="1256"/>
      <point x="34" y="1221"/>
      <point x="42" y="1183" type="curve"/>
      <point x="286" y="1200" type="line"/>
      <point x="295" y="1014" type="line"/>
      <point x="83" y="1008" type="line"/>
      <point x="58" y="956"/>
      <point x="43" y="905"/>
      <point x="43" y="843" type="curve" smooth="yes"/>
      <point x="43" y="812"/>
      <point x="47" y="777"/>
      <point x="55" y="739" type="curve"/>
      <point x="307" y="757" type="line"/>
    </contour>
  </outline>
</glyph>
<glyph name="bullet" format="1">
  <advance width="802"/>
  <unicode hex="2022"/>
  <outline>
    <contour>
      <point x="401" y="303" type="curve" smooth="yes"/>
      <point x="560" y="303"/>
      <point x="718" y="439"/>
      <point x="718" y="622" type="curve" smooth="yes"/>
      <point x="718" y="763"/>
      <point x="638" y="918"/>
      <point x="401" y="918" type="curve" smooth="yes"/>
      <point x="164" y="918"/>
      <point x="84" y="763"/>
      <point x="84" y="622" type="curve" smooth="yes"/>
      <point x="84" y="439"/>
      <point x="242" y="303"/>
    </contour>
  </outline>
</glyph>
<glyph name="euro" format="1">
  <advance width="1340"/>
  <unicode hex="20AC"/>
  <outline>
    <contour>
      <point x="33" y="476" type="curve"/>
      <point x="197" y="476" type="line"/>
      <point x="257" y="167"/>
      <point x="432" y="-20"/>
      <point x="786" y="-20" type="curve" smooth="yes"/>
      <point x="1092" y="-20"/>
      <point x="1260" y="168"/>
      <point x="1284" y="216" type="curve"/>
      <point x="1271" y="321"/>
      <point x="1234" y="373"/>
      <point x="1183" y="429" type="curve"/>
      <point x="1067" y="363"/>
      <point x="957" y="313"/>
      <point x="810" y="313" type="curve" smooth="yes"/>
      <point x="668" y="313"/>
      <point x="617" y="368"/>
      <point x="592" y="477" type="curve"/>
      <point x="807" y="478" type="line"/>
      <point x="835" y="532"/>
      <point x="850" y="594"/>
      <point x="850" y="650" type="curve" smooth="yes"/>
      <point x="850" y="670"/>
      <point x="848" y="690"/>
      <point x="844" y="708" type="curve"/>
      <point x="568" y="688" type="line"/>
      <point x="567" y="716"/>
      <point x="567" y="744"/>
      <point x="567" y="772" type="curve" smooth="yes"/>
      <point x="567" y="784"/>
      <point x="567" y="795"/>
      <point x="567" y="807" type="curve"/>
      <point x="792" y="808" type="line"/>
      <point x="820" y="862"/>
      <point x="835" y="924"/>
      <point x="835" y="980" type="curve" smooth="yes"/>
      <point x="835" y="1000"/>
      <point x="833" y="1020"/>
      <point x="829" y="1038" type="curve"/>
      <point x="587" y="1021" type="line"/>
      <point x="598" y="1082"/>
      <point x="611" y="1137"/>
      <point x="626" y="1184" type="curve"/>
      <point x="642" y="1185"/>
      <point x="679" y="1185"/>
      <point x="696" y="1185" type="curve" smooth="yes"/>
      <point x="764" y="1185"/>
      <point x="880" y="1182"/>
      <point x="940" y="1165" type="curve"/>
      <point x="975" y="960" type="line"/>
      <point x="1004" y="943"/>
      <point x="1048" y="934"/>
      <point x="1108" y="934" type="curve" smooth="yes"/>
      <point x="1163" y="934"/>
      <point x="1198" y="945"/>
      <point x="1228" y="960" type="curve"/>
      <point x="1284" y="1023"/>
      <point x="1329" y="1222"/>
      <point x="1329" y="1363" type="curve"/>
      <point x="1307" y="1405"/>
      <point x="1278" y="1465"/>
      <point x="1215" y="1503" type="curve"/>
      <point x="1091" y="1532"/>
      <point x="904" y="1552"/>
      <point x="810" y="1552" type="curve" smooth="yes"/>
      <point x="436" y="1552"/>
      <point x="248" y="1316"/>
      <point x="191" y="992" type="curve"/>
      <point x="57" y="983" type="line"/>
      <point x="31" y="938"/>
      <point x="16" y="902"/>
      <point x="16" y="847" type="curve" smooth="yes"/>
      <point x="16" y="834"/>
      <point x="16" y="821"/>
      <point x="18" y="806" type="curve"/>
      <point x="174" y="806" type="line"/>
      <point x="173" y="792"/>
      <point x="173" y="778"/>
      <point x="173" y="764" type="curve" smooth="yes"/>
      <point x="173" y="728"/>
      <point x="174" y="694"/>
      <point x="176" y="660" type="curve"/>
      <point x="72" y="653" type="line"/>
      <point x="46" y="608"/>
      <point x="31" y="572"/>
      <point x="31" y="517" type="curve" smooth="yes"/>
      <point x="31" y="504"/>
      <point x="31" y="491"/>
    </contour>
  </outline>
</glyph>
<glyph name="trademark" format="1">
  <advance width="2277"/>
  <unicode hex="2122"/>
  <outline>
    <contour>
      <point x="883" y="669" type="curve"/>
      <point x="906" y="625"/>
      <point x="977" y="587"/>
      <point x="1048" y="587" type="curve" smooth="yes"/>
      <point x="1118" y="587"/>
      <point x="1205" y="622"/>
      <point x="1217" y="717" type="curve" smooth="yes"/>
      <point x="1232" y="837"/>
      <point x="1234" y="984"/>
      <point x="1237" y="1112" type="curve"/>
      <point x="1213" y="1273" type="line"/>
      <point x="1251" y="1273" type="line"/>
      <point x="1287" y="1130" type="line"/>
      <point x="1389" y="760" type="line"/>
      <point x="1376" y="723"/>
      <point x="1367" y="681"/>
      <point x="1366" y="642" type="curve"/>
      <point x="1392" y="604"/>
      <point x="1475" y="587"/>
      <point x="1532" y="587" type="curve" smooth="yes"/>
      <point x="1589" y="587"/>
      <point x="1639" y="605"/>
      <point x="1674" y="638" type="curve"/>
      <point x="1670" y="679"/>
      <point x="1658" y="739"/>
      <point x="1644" y="785" type="curve"/>
      <point x="1680" y="881"/>
      <point x="1723" y="1020"/>
      <point x="1747" y="1115" type="curve"/>
      <point x="1773" y="1276" type="line"/>
      <point x="1810" y="1276" type="line"/>
      <point x="1801" y="1123" type="line"/>
      <point x="1843" y="777" type="line"/>
      <point x="1819" y="647" type="line"/>
      <point x="1854" y="601"/>
      <point x="1904" y="587"/>
      <point x="1955" y="587" type="curve" smooth="yes"/>
      <point x="1999" y="587"/>
      <point x="2053" y="592"/>
      <point x="2085" y="616" type="curve"/>
      <point x="2104" y="641"/>
      <point x="2111" y="680"/>
      <point x="2111" y="718" type="curve" smooth="yes"/>
      <point x="2111" y="882"/>
      <point x="2046" y="1275"/>
      <point x="1990" y="1474" type="curve"/>
      <point x="1964" y="1487" type="line"/>
      <point x="1925" y="1488"/>
      <point x="1826" y="1489"/>
      <point x="1819" y="1489" type="curve" smooth="yes"/>
      <point x="1734" y="1489"/>
      <point x="1646" y="1483"/>
      <point x="1570" y="1456" type="curve"/>
      <point x="1565" y="1437"/>
      <point x="1562" y="1419"/>
      <point x="1562" y="1400" type="curve" smooth="yes"/>
      <point x="1562" y="1378"/>
      <point x="1567" y="1353"/>
      <point x="1577" y="1328" type="curve"/>
      <point x="1616" y="1315" type="line"/>
      <point x="1614" y="1304" type="line" smooth="yes"/>
      <point x="1599" y="1238"/>
      <point x="1573" y="1122"/>
      <point x="1547" y="1023" type="curve"/>
      <point x="1493" y="1266"/>
      <point x="1472" y="1405"/>
      <point x="1446" y="1475" type="curve"/>
      <point x="1422" y="1487" type="line"/>
      <point x="1383" y="1487"/>
      <point x="1270" y="1493"/>
      <point x="1226" y="1493" type="curve" smooth="yes"/>
      <point x="1164" y="1493"/>
      <point x="998" y="1484"/>
      <point x="953" y="1462" type="curve"/>
      <point x="944" y="1439"/>
      <point x="939" y="1415"/>
      <point x="939" y="1394" type="curve" smooth="yes"/>
      <point x="939" y="1373"/>
      <point x="944" y="1350"/>
      <point x="953" y="1328" type="curve"/>
      <point x="976" y="1324"/>
      <point x="1001" y="1321"/>
      <point x="1026" y="1317" type="curve"/>
      <point x="988" y="801" type="line"/>
      <point x="911" y="819" type="line"/>
      <point x="892" y="779"/>
      <point x="880" y="740"/>
      <point x="880" y="700" type="curve" smooth="yes"/>
      <point x="880" y="690"/>
      <point x="881" y="679"/>
    </contour>
    <contour>
      <point x="248" y="667" type="curve"/>
      <point x="283" y="599"/>
      <point x="374" y="587"/>
      <point x="419" y="587" type="curve" smooth="yes"/>
      <point x="479" y="587"/>
      <point x="559" y="604"/>
      <point x="592" y="648" type="curve" smooth="yes"/>
      <point x="619" y="684"/>
      <point x="628" y="730"/>
      <point x="633" y="781" type="curve" smooth="yes"/>
      <point x="646" y="928"/>
      <point x="656" y="1103"/>
      <point x="660" y="1257" type="curve"/>
      <point x="695" y="1254"/>
      <point x="725" y="1252"/>
      <point x="755" y="1252" type="curve" smooth="yes"/>
      <point x="856" y="1252"/>
      <point x="908" y="1299"/>
      <point x="908" y="1375" type="curve" smooth="yes"/>
      <point x="908" y="1408"/>
      <point x="899" y="1447"/>
      <point x="879" y="1489" type="curve"/>
      <point x="734" y="1489"/>
      <point x="351" y="1485"/>
      <point x="220" y="1477" type="curve" smooth="yes"/>
      <point x="109" y="1470"/>
      <point x="41" y="1449"/>
      <point x="41" y="1317" type="curve" smooth="yes"/>
      <point x="41" y="1240"/>
      <point x="89" y="1151"/>
      <point x="126" y="1123" type="curve"/>
      <point x="133" y="1122"/>
      <point x="140" y="1122"/>
      <point x="147" y="1122" type="curve" smooth="yes"/>
      <point x="180" y="1122"/>
      <point x="216" y="1128"/>
      <point x="250" y="1140" type="curve"/>
      <point x="252" y="1295" type="line"/>
      <point x="392" y="1279" type="line"/>
      <point x="389" y="1252"/>
      <point x="389" y="1226"/>
      <point x="389" y="1189" type="curve" smooth="yes"/>
      <point x="389" y="1096"/>
      <point x="396" y="982"/>
      <point x="401" y="896" type="curve" smooth="yes"/>
      <point x="404" y="843" type="line"/>
      <point x="404" y="826" type="line" smooth="yes"/>
      <point x="404" y="814"/>
      <point x="404" y="804"/>
      <point x="401" y="795" type="curve"/>
      <point x="366" y="804"/>
      <point x="330" y="819"/>
      <point x="295" y="833" type="curve"/>
      <point x="254" y="780"/>
      <point x="248" y="709"/>
    </contour>
  </outline>
</glyph>
<glyph name=".notdef" format="1">
  <advance width="1872"/>
  <outline>
    <contour>
      <point x="228" y="0" type="line"/>
      <point x="1644" y="0" type="line"/>
      <point x="1644" y="1416" type="line"/>
      <point x="228" y="1416" type="line"/>
    </contour>
    <contour>
      <point x="491" y="387" type="line"/>
      <point x="834" y="705" type="line"/>
      <point x="490" y="1043" type="line"/>
      <point x="604" y="1159" type="line"/>
      <point x="937" y="807" type="line"/>
      <point x="1265" y="1158" type="line"/>
      <point x="1384" y="1042" type="line"/>
      <point x="1036" y="708" type="line"/>
      <point x="1384" y="365" type="line"/>
      <point x="1271" y="252" type="line"/>
      <point x="934" y="605" type="line"/>
      <point x="610" y="252" type="line"/>
    </contour>
  </outline>
</glyph>
<glyph name="acute.cap" format="1">
  <advance width="0"/>
  <outline>
    <contour>
      <point x="-152" y="1625" type="curve" smooth="yes"/>
      <point x="-19" y="1625"/>
      <point x="171" y="1664"/>
      <point x="281" y="1737" type="curve"/>
      <point x="277" y="1839"/>
      <point x="229" y="1955"/>
      <point x="122" y="2020" type="curve"/>
      <point x="-280" y="1796" type="line"/>
      <point x="-271" y="1732"/>
      <point x="-250" y="1666"/>
      <point x="-216" y="1629" type="curve"/>
      <point x="-197" y="1627"/>
      <point x="-175" y="1625"/>
    </contour>
    <contour>
      <point x="0" y="0" type="move" name="_top"/>
    </contour>
  </outline>
</glyph>
<glyph name="caroncomb.cap" format="1">
  <advance width="0"/>
  <outline>
    <contour>
      <point x="-59" y="1628" type="curve" smooth="yes"/>
      <point x="16" y="1628"/>
      <point x="104" y="1633"/>
      <point x="135" y="1642" type="curve"/>
      <point x="374" y="1888" type="line"/>
      <point x="351" y="1935"/>
      <point x="264" y="1998"/>
      <point x="214" y="2020" type="curve"/>
      <point x="134" y="1967"/>
      <point x="74" y="1912"/>
      <point x="20" y="1841" type="curve"/>
      <point x="-148" y="2002" type="line"/>
      <point x="-239" y="2009"/>
      <point x="-370" y="1877"/>
      <point x="-374" y="1804" type="curve"/>
      <point x="-169" y="1634" type="line"/>
      <point x="-149" y="1630"/>
      <point x="-106" y="1628"/>
    </contour>
    <contour>
      <point x="0" y="0" type="move" name="_top"/>
    </contour>
  </outline>
</glyph>
<glyph name="dotaccentcomb.cap" format="1">
  <advance width="0"/>
  <outline>
    <contour>
      <point x="0" y="1600" type="curve" smooth="yes"/>
      <point x="89" y="1600"/>
      <point x="231" y="1684"/>
      <point x="231" y="1800" type="curve" smooth="yes"/>
      <point x="231" y="1899"/>
      <point x="170" y="1981"/>
      <point x="0" y="1981" type="curve" smooth="yes"/>
      <point x="-127" y="1981"/>
      <point x="-230" y="1926"/>
      <point x="-230" y="1802" type="curve" smooth="yes"/>
      <point x="-230" y="1691"/>
      <point x="-112" y="1600"/>
    </contour>
    <contour>
      <point x="-3" y="0" type="move" name="_top"/>
    </contour>
  </outline>
</glyph>
<glyph name="ij_acutecomb" format="1">
  <advance width="1400"/>
  <outline>
    <contour>
      <point x="156" y="210" type="curve" smooth="yes"/>
      <point x="156" y="28"/>
      <point x="259" y="-20"/>
      <point x="371" y="-20" type="curve" smooth="yes"/>
      <point x="584" y="-20"/>
      <point x="699" y="175"/>
      <point x="699" y="175" type="curve"/>
      <point x="691" y="246"/>
      <point x="666" y="299"/>
      <point x="612" y="345" type="curve"/>
      <point x="464" y="291" type="line"/>
      <point x="462" y="293" type="line"/>
      <point x="507" y="395"/>
      <point x="593" y="756"/>
      <point x="593" y="926" type="curve" smooth="yes"/>
      <point x="593" y="1099"/>
      <point x="526" y="1185"/>
      <point x="335" y="1185" type="curve" smooth="yes"/>
      <point x="198" y="1185"/>
      <point x="81" y="1114"/>
      <point x="42" y="1065" type="curve"/>
      <point x="42" y="1055"/>
      <point x="41" y="1046"/>
      <point x="41" y="1037" type="curve" smooth="yes"/>
      <point x="41" y="979"/>
      <point x="47" y="930"/>
      <point x="64" y="863" type="curve"/>
      <point x="189" y="842" type="line"/>
      <point x="165" y="623"/>
      <point x="156" y="390"/>
    </contour>
    <contour>
      <point x="735" y="-75" type="line"/>
      <point x="679" y="-131"/>
      <point x="660" y="-223"/>
      <point x="659" y="-297" type="curve"/>
      <point x="702" y="-390"/>
      <point x="820" y="-432"/>
      <point x="941" y="-432" type="curve" smooth="yes"/>
      <point x="1067" y="-432"/>
      <point x="1153" y="-395"/>
      <point x="1211" y="-298" type="curve" smooth="yes"/>
      <point x="1264" y="-210"/>
      <point x="1274" y="10"/>
      <point x="1283" y="242" type="curve" smooth="yes"/>
      <point x="1294" y="535"/>
      <point x="1321" y="740"/>
      <point x="1321" y="926" type="curve" smooth="yes"/>
      <point x="1321" y="1099"/>
      <point x="1261" y="1185"/>
      <point x="1080" y="1185" type="curve" smooth="yes"/>
      <point x="943" y="1185"/>
      <point x="795" y="1114"/>
      <point x="756" y="1065" type="curve"/>
      <point x="757" y="974"/>
      <point x="764" y="916"/>
      <point x="778" y="863" type="curve"/>
      <point x="925" y="842" type="line"/>
      <point x="923" y="794"/>
      <point x="922" y="745"/>
      <point x="922" y="696" type="curve" smooth="yes"/>
      <point x="922" y="646"/>
      <point x="929" y="277"/>
      <point x="938" y="107" type="curve" smooth="yes"/>
      <point x="944" y="0"/>
      <point x="947" y="-59"/>
      <point x="947" y="-100" type="curve" smooth="yes"/>
      <point x="947" y="-118"/>
      <point x="947" y="-132"/>
      <point x="945" y="-145" type="curve"/>
    </contour>
    <component base="acute" xOffset="358"/>
    <component base="acute" xOffset="1117"/>
  </outline>
</glyph>
<glyph name="ring.cap" format="1">
  <advance width="0"/>
  <outline>
    <contour>
      <point x="1" y="1501" type="curve" smooth="yes"/>
      <point x="181" y="1501"/>
      <point x="296" y="1617"/>
      <point x="296" y="1786" type="curve" smooth="yes"/>
      <point x="296" y="1957"/>
      <point x="167" y="2020"/>
      <point x="7" y="2020" type="curve" smooth="yes"/>
      <point x="-169" y="2020"/>
      <point x="-296" y="1948"/>
      <point x="-296" y="1781" type="curve" smooth="yes"/>
      <point x="-296" y="1606"/>
      <point x="-174" y="1501"/>
    </contour>
    <contour>
      <point x="-7" y="1700" type="curve" smooth="yes"/>
      <point x="-54" y="1700"/>
      <point x="-90" y="1723"/>
      <point x="-90" y="1769" type="curve" smooth="yes"/>
      <point x="-90" y="1780"/>
      <point x="-89" y="1793"/>
      <point x="-83" y="1801" type="curve"/>
      <point x="-68" y="1805"/>
      <point x="-32" y="1808"/>
      <point x="-1" y="1808" type="curve" smooth="yes"/>
      <point x="56" y="1808"/>
      <point x="81" y="1787"/>
      <point x="82" y="1754" type="curve" smooth="yes"/>
      <point x="83" y="1737"/>
      <point x="77" y="1722"/>
      <point x="74" y="1710" type="curve"/>
      <point x="56" y="1703"/>
      <point x="26" y="1700"/>
    </contour>
    <contour>
      <point x="0" y="0" type="move" name="_top"/>
    </contour>
  </outline>
</glyph>
